<svg xmlns="http://www.w3.org/2000/svg" width="314.419" height="70" viewBox="0 0 314.419 70">
  <g id="组_7453" data-name="组 7453" transform="translate(-150 -41.747)">
    <g id="组_7451" data-name="组 7451" transform="translate(150 41.747)">
      <rect id="矩形_7057" data-name="矩形 7057" width="1.063" height="1.063" transform="matrix(0.963, -0.271, 0.271, 0.963, 61.288, 26.106)" fill="#fff"/>
      <path id="路径_48989" data-name="路径 48989" d="M138.727,622.808l2.044-1.633,1.736-.217.018,0h.009l0-.009,0-.018-.069-.513,0-.018v-.009h-.009l-.018,0-1.68.209-2.465-1.076-.029-.012-.015-.007,0,.016,0,.031.076.568v.015l0,0,.009,0,1.879.816-1.6,1.26-.008.006,0,0v.015l.073.547,0,.031,0,.016.012-.01Z" transform="translate(-77.808 -589.828)" fill="#fff" fill-rule="evenodd"/>
      <path id="路径_48990" data-name="路径 48990" d="M139.437,626.4l-.033,1.365,3.508.08h.027v.027l-.013.518v.027H142.9l-3.508-.08-.032,1.364v.027h-.027l-.474-.011h-.027v-.027l.078-3.3v-.027h.027l.475.011h.027v.026Z" transform="translate(-78.062 -592.797)" fill="#fff" fill-rule="evenodd"/>
      <path id="路径_48991" data-name="路径 48991" d="M138.667,633.469,138.485,635l0,.018v.009h.009l.018,0,.406.046.017,0h.009v-.009l0-.018.057-.48,3.117.354-.057.48,0,.018v.009h.009l.018,0,.406.046.017,0h.009v-.009l0-.018.182-1.527,0-.017V633.9H142.7l-.018,0-.406-.046-.018,0h-.009v.009l0,.018-.057.48L139.07,634l.057-.48,0-.017v-.009h-.009l-.018,0-.406-.046-.018,0h-.009v.009Z" transform="translate(-77.911 -595.864)" fill="#fff" fill-rule="evenodd"/>
      <path id="路径_48992" data-name="路径 48992" d="M141.641,639.1h0l.015.036.015.037a1.941,1.941,0,0,1,.1.889c-.007.071-.014.14-.023.206a3.112,3.112,0,0,1-.185.713c-.022.055-.045.111-.07.165s-.052.111-.08.166-.058.111-.091.167l-.006.01,0,.005H141.3l-.664-.066-.018,0h-.009V641.4l0-.036v-.01l0,0,0,0a1.8,1.8,0,0,0,.13-.139c.041-.048.08-.1.117-.152h0l.031-.045.029-.046a2.421,2.421,0,0,0,.278-.647,1.84,1.84,0,0,0,.054-.307h0c0-.023,0-.044.005-.065s0-.042,0-.063a1.573,1.573,0,0,0-.016-.295h0c0-.018-.006-.034-.009-.052s-.007-.033-.011-.049a.877.877,0,0,0-.087-.223.721.721,0,0,0-.086-.122.606.606,0,0,0-.587-.172h0l-.026.006-.024.008a.326.326,0,0,0-.107.059h0l-.018.016-.017.018a.631.631,0,0,0-.084.109h0a1.706,1.706,0,0,0-.167.408l0,.01-.009.028-.011.039c-.012.044-.024.091-.036.138h0l0,.013-.008.031-.008.031c-.013.051-.027.1-.041.156l-.014.048-.009.032-.015.054c-.011.036-.022.074-.033.111h0l0,.011v0l-.006.019-.007.019a1.4,1.4,0,0,1-.443.686h0l-.043.031-.045.028a.92.92,0,0,1-.252.1h0a.477.477,0,0,1-.053.011l-.054.009a1.334,1.334,0,0,1-.3,0h0l-.02,0h0l-.019,0q-.049-.007-.1-.017l-.033-.008h0l-.017,0-.016-.005-.063-.02h0c-.03-.011-.06-.023-.088-.037s-.057-.029-.084-.046a1.112,1.112,0,0,1-.359-.361h0l-.011-.017-.011-.018c-.019-.031-.036-.062-.052-.094h0l-.009-.019h0l-.009-.019a1.812,1.812,0,0,1-.139-.925v0c0-.018,0-.037.006-.057s0-.037.006-.056a3.334,3.334,0,0,1,.39-1.223l.006-.01,0-.005h.018l.626.062h0l.018,0h.009v.009l0,.018,0,.036v.01l0,0-.005.005a1.308,1.308,0,0,0-.1.108c-.032.039-.064.082-.094.126h0l-.025.039c-.008.012-.016.026-.024.04a2.225,2.225,0,0,0-.31.946v0h0v.032c0,.027,0,.053,0,.079h0v.03c0,.026,0,.05,0,.075h0c0,.024,0,.048.005.071s.006.046.01.069a.887.887,0,0,0,.1.308h0l.021.035.023.033a.52.52,0,0,0,.435.219.627.627,0,0,0,.15-.013h0l.024-.006.025-.008a.414.414,0,0,0,.116-.059l0,0h0a1.725,1.725,0,0,0,.375-.867l.005-.018h0l.023-.08h0l.022-.078.016-.053.014-.048h0l.015-.047c.022-.067.042-.13.062-.186h0v0c.007-.019.015-.039.023-.058s.016-.038.024-.057a1.592,1.592,0,0,1,.137-.253h0l.031-.043.031-.04a.843.843,0,0,1,.487-.315h0l.05-.01.052-.007A1.192,1.192,0,0,1,141.641,639.1Z" transform="translate(-77.522 -597.95)" fill="#fff" fill-rule="evenodd"/>
      <path id="路径_48993" data-name="路径 48993" d="M136.274,645.746l-.006,0-.015.01-.015.011h0l-.007.005-.007.006a.972.972,0,0,0-.238.328l-.011.024c-.019.04-.038.083-.057.13l-.221.542,1.338.573.188-.46h0l.012-.031.012-.031c.02-.053.037-.1.052-.153h0c0-.011.006-.02.008-.029l.008-.028c.011-.044.02-.086.027-.127l0-.011h0l0-.025,0-.024a.681.681,0,0,0-.2-.544l0,0-.015-.014-.017-.015a.819.819,0,0,0-.1-.069h0l-.022-.013a.644.644,0,0,0-.714-.053Zm3.69-.033-.255.625,0,.008,0,0h0l-.008,0-1.942.582-.261.639,1.436.616.016.007.008,0,0,.008-.007.016-.2.481-.007.016,0,.009-.008,0-.017-.007-3.674-1.574-.016-.007-.008,0,0-.009.007-.016.412-1.014v0h0l.019-.045.016-.039,0-.006.018-.042.019-.043h0l.027-.057.027-.055a1.121,1.121,0,0,1,2.055-.161h0l.007.012h0l.007.012a1.36,1.36,0,0,1,.172.666l2.125-.661.036-.011.018-.006-.007.017Z" transform="translate(-76.408 -600.887)" fill="#fff" fill-rule="evenodd"/>
      <path id="路径_48994" data-name="路径 48994" d="M136.924,652.337l-1.249,2.259-.009.016,0,.008-.008,0-.016-.009h0l-3.441-2.011h0l-.015-.009-.007,0,0-.008.008-.015,1.249-2.259.009-.016,0-.008.008,0,.016.009h0l.407.238.015.009.008,0,0,.008-.008.015-.984,1.78.9.524.983-1.779.009-.016,0-.008.008,0,.015.009.407.238.015.009.007,0,0,.008-.008.015-.984,1.78,1.231.719.983-1.779.009-.016,0-.008.008,0,.016.009.407.238.015.009.008,0,0,.008Z" transform="translate(-75.179 -603.155)" fill="#fff" fill-rule="evenodd"/>
      <path id="路径_48995" data-name="路径 48995" d="M127.825,658.352l4.09,1.189h0l.012,0,.006,0,0,0,.007-.01.424-.554.008-.01,0-.005,0-.005-.007-.01-2.35-3.463-.014-.021-.007-.01-.008.01-.015.019-.341.445-.008.01,0,.005,0,.005.007.01,2.039,2.962-3.508-1.044-.012,0-.006,0,0,0-.008.01-.324.424h0l-.016.021-.008.011.013,0Z" transform="translate(-73.279 -605.397)" fill="#fff" fill-rule="evenodd"/>
      <path id="路径_48996" data-name="路径 48996" d="M125.926,661.346l-1.092,1.112-.013.013-.007.006.007.006.013.012.3.274.013.012.007.006.006-.006.012-.012.344-.35,2.271,2.1-.343.349-.013.013-.007.007.007.006.013.013.3.274.013.012.006.006.006-.006.012-.012,1.092-1.112.013-.013.006-.006-.007-.006-.014-.013-.3-.274-.013-.012-.007-.006-.006.006-.012.012-.344.35-2.271-2.1.343-.349.013-.013.006-.007-.007-.006-.013-.013-.3-.274-.013-.012-.006-.006-.006.006Z" transform="translate(-71.991 -607.942)" fill="#fff" fill-rule="evenodd"/>
      <path id="路径_48997" data-name="路径 48997" d="M124.171,667.755l-.511.406-.009.007,0,0-.005,0-.01,0-3.487-1.606,2.048,2.735.01.014.005.007-.007.005-.014.011-.386.306-.014.011-.007.006-.006-.007-.011-.015-2.36-3.152-.01-.014-.005-.007.007-.005.014-.011.64-.509.009-.007,0,0,0,0,.01,0,3.175,1.463-1.864-2.489-.01-.014-.005-.007.007-.005.014-.011.386-.307.014-.011.007-.006.006.007.011.015,2.36,3.152.01.014.005.007-.007.005Z" transform="translate(-69.641 -609.335)" fill="#fff" fill-rule="evenodd"/>
      <path id="路径_48998" data-name="路径 48998" d="M114.544,672.594h0l.009.015h0l.009.015.044.072h0l.009.014.008.013.045.068h0l.045.066.046.063a1.37,1.37,0,0,0,1.366.616h.014l.011,0,.011,0,.059-.012h0l.011,0,.012,0,.06-.016h0a1.492,1.492,0,0,0,.969-2.393l-1.177-2.031-.009-.015,0-.007-.007,0-.015.008-.465.253-.016.009-.008,0,0,.008.009.016,1.19,2.054a2.636,2.636,0,0,1,.178.355.8.8,0,0,1-.075.807h0l-.019.023-.02.023a.947.947,0,0,1-.119.112h0l-.027.02a1.139,1.139,0,0,1-.911.259.714.714,0,0,1-.136-.05h0l-.022-.011-.022-.012h0l-.006,0-.006,0-.028-.016h0a1.552,1.552,0,0,1-.481-.562l-1.2-2.065-.009-.015,0-.008-.008,0-.015.008-.464.254-.016.008-.008,0,0,.008.009.016,1.177,2.031Z" transform="translate(-67.027 -611.286)" fill="#fff" fill-rule="evenodd"/>
      <path id="路径_48999" data-name="路径 48999" d="M106.944,677.763l1.513-.45.017-.005.009,0,0-.009-.005-.017-.121-.38-.005-.017,0-.008-.009,0-.017.005-.477.142-.924-2.912.475-.141.017-.006.009,0,0-.009-.006-.017-.121-.38-.005-.017,0-.008-.009,0-.017.005-1.513.45-.017.005-.009,0,0,.009.005.017.121.38,0,.017,0,.008.008,0,.017-.005.476-.142.924,2.912-.476.141-.017.005-.009,0,0,.009.006.017.121.38h0l.005.017,0,.009.008,0Z" transform="translate(-63.722 -613.227)" fill="#fff" fill-rule="evenodd"/>
      <path id="路径_49000" data-name="路径 49000" d="M102.735,678.635l-3.084.515-.018,0-.009,0v-.009l0-.018-.074-.476v-.009l0,0,0-.006,1.937-3.274-2.276.38-.018,0-.009,0v-.009l0-.018-.071-.456,0-.017v-.009h.009l.017,0,2.935-.49.018,0,.009,0v.009l0,.018.072.463v.01l0,0,0,.005h0l-1.959,3.29,2.448-.408.018,0h.009v.009l0,.018.071.455,0,.018v.009h-.009Z" transform="translate(-60.856 -613.75)" fill="#fff" fill-rule="evenodd"/>
      <path id="路径_49001" data-name="路径 49001" d="M95.218,679.55l-.66-.009h-.016l0,0,0-.009-1.8-3.416-.051,3.377v.027h-.027l-.5-.006h-.027v-.027l.058-3.893v-.027h.027l.826.012h.016l0,0,0,.009,1.638,3.11.046-3.074V675.6h.027l.5.007H95.3v.027l-.059,3.893v.027h-.027Z" transform="translate(-57.836 -614.106)" fill="#fff" fill-rule="evenodd"/>
      <path id="路径_49002" data-name="路径 49002" d="M85.585,677.393l.918-1.7.4,1.879-1.316-.183ZM84.2,678.8l.561.078.012,0h.006l0-.006.006-.011.537-1,1.683.234.227,1.11,0,.012v.006h.006l.012,0,.536.074.025,0,.013,0,0-.013-.005-.025-.88-4.055,0-.012v-.006h-.019l-.7-.1-.012,0H86.2l0,.006-.006.01h0l-2.01,3.652-.012.023-.006.011.012,0Z" transform="translate(-54.384 -613.903)" fill="#fff" fill-rule="evenodd"/>
      <path id="路径_49003" data-name="路径 49003" d="M79.514,677.6l1.527.407.017,0,.009,0,0-.008,0-.017.107-.383,0-.017,0-.009-.009,0-.018,0-.48-.128.824-2.937.481.128.017,0,.009,0,0-.008,0-.017.107-.383,0-.017,0-.009-.009,0-.018,0-1.527-.407-.017,0-.008,0,0,.008,0,.017-.107.383,0,.017,0,.009.009,0,.018,0,.48.128-.824,2.937-.481-.129-.017,0-.009,0,0,.008,0,.017-.107.383h0l0,.017,0,.009.009,0Z" transform="translate(-52.359 -613.336)" fill="#fff" fill-rule="evenodd"/>
      <path id="路径_49004" data-name="路径 49004" d="M61.875,668.5h0l-.011.013-.011.012-.054.065h0l-.01.012-.01.013c-.018.022-.035.043-.05.065h0l-.047.063c-.015.022-.031.043-.044.064a2.218,2.218,0,0,0-.182.32v0h0l-.005.012h0l-.005.012h0c-.008.02-.017.04-.025.061h0l0,.012,0,.012h0l-.02.061h0v0c-.006.02-.011.041-.016.061s-.01.041-.013.061a1.583,1.583,0,0,0,.9,1.537h0l.04.024.04.022a1.339,1.339,0,0,0,1.073.11h0l.042-.015.041-.016a2.235,2.235,0,0,0,.779-.62l1.545-1.776.012-.014.006-.007-.007-.006-.014-.012-.408-.335-.013-.011-.007-.006-.006.006-.011.013-1.563,1.8h0l-.029.033-.028.032c-.048.053-.094.1-.137.142l-.006.006c-.028.027-.054.05-.08.073s-.054.044-.079.062h0l-.022.015-.022.014a.9.9,0,0,1-.439.15h-.07a1.248,1.248,0,0,1-.91-.632h0l-.013-.026-.011-.026a.788.788,0,0,1,.06-.677c.015-.029.033-.058.052-.089s.041-.062.063-.094h0l.02-.027.021-.028c.036-.048.078-.1.122-.149l1.571-1.805.012-.014.006-.007-.007-.006-.014-.011-.408-.335-.014-.011-.006-.005-.006.006-.011.013h0Z" transform="translate(-44.499 -610.272)" fill="#fff" fill-rule="evenodd"/>
      <path id="路径_49005" data-name="路径 49005" d="M54.379,657.482l-.312-.419-.01-.014-.005-.007-.007.005-.014.01-1.57,1.1-1.139-1.531,1.569-1.1.015-.01.008-.006-.006-.007-.011-.015-.312-.42-.01-.014-.005-.007-.007.005-.014.01L49.3,657.343l-.015.011-.008.005.006.007.011.015.312.42.01.014.005.007.007-.005.014-.01,1.254-.88,1.139,1.532-1.253.879-.015.011-.008.005.006.007.011.015.312.42h0l.01.014.005.007.007,0,.014-.01,3.252-2.281.015-.01.007-.005-.005-.007Z" transform="translate(-39.273 -605.221)" fill="#fff" fill-rule="evenodd"/>
      <path id="路径_49006" data-name="路径 49006" d="M46.822,653.488l-1.364-2.736-.008-.015,0-.008.008,0,.015-.008.436-.23.005,0,0,0h.009l3.69.727L48.6,649.19l-.008-.016,0-.008.008,0,.015-.008.417-.22h0l.016-.008.008,0,0,.008.008.016,1.3,2.6.008.016,0,.008-.008,0-.015.008-.424.224-.006,0h-.012L46.2,651.07l1.083,2.173.008.015,0,.008-.008,0-.015.008-.417.22-.016.009-.008,0,0-.008Z" transform="translate(-37.615 -602.568)" fill="#fff" fill-rule="evenodd"/>
      <path id="路径_49007" data-name="路径 49007" d="M43.557,645.838a2.657,2.657,0,0,1-.316-1.554h0l0-.016,0-.015c0-.027.007-.055.012-.081h0l0-.016,0-.015h0a2.207,2.207,0,0,1,3.791-.785,2.433,2.433,0,0,1,.329.829h0l.009.046.009.047c.014.079.025.16.032.244h0c0,.016,0,.032,0,.049s0,.032,0,.049h0a3.509,3.509,0,0,1-.109,1.057l0,.01v.006h-.006l-.01,0-.614.143-.018,0-.008,0,0-.009,0-.018-.01-.046v-.009l0,0,0-.006.024-.051a2.875,2.875,0,0,0,.2-.549,2.18,2.18,0,0,0-.007-.942h0v-.01a1.268,1.268,0,0,0-1.148-1.049h0l-.019,0h0l-.084-.005H45.53a1.7,1.7,0,0,0-1.768,1.239h0c0,.027-.008.053-.011.081a1.842,1.842,0,0,0,.083.721c0,.016.01.032.015.048a2.417,2.417,0,0,0,.3.62l.91-.213-.214-1h0l0-.017,0-.009.009,0,.018,0,.455-.107.018,0,.009,0,0,.009,0,.018.328,1.526,0,.017,0,.008-.009,0-.017,0-1.671.391h0l-.011,0h-.006l0,0A4.815,4.815,0,0,1,43.557,645.838Z" transform="translate(-36.653 -599.816)" fill="#fff" fill-rule="evenodd"/>
      <path id="路径_49008" data-name="路径 49008" d="M41.171,638.4l-.107-.632h0l0-.011v-.005l0,0,.008-.007h0l3.134-2.38-3.421.607-.018,0-.009,0,0-.009,0-.018-.081-.477,0-.018v-.009l.009,0,.017,0,3.946-.7.018,0,.009,0v.009l0,.018.134.791,0,.011v.006l0,0-.009.007-2.853,2.166,3.113-.552.018,0,.009,0,0,.009,0,.018.081.477,0,.018,0,.009-.009,0-.017,0-3.946.7-.018,0-.009,0,0-.009Z" transform="translate(-35.547 -596.425)" fill="#fff" fill-rule="evenodd"/>
      <path id="路径_49009" data-name="路径 49009" d="M42.021,629.867l1.833-.712-1.881-.578.048,1.29Zm-1.586,1.192-.02-.55v-.019l.006,0,.012,0,1.085-.416-.062-1.648-1.113-.333-.012,0-.006,0v-.02l-.02-.526V627.5l.012,0,.024.007,4.06,1.267.012,0,.006,0v.019l.026.69v.019l-.006,0-.012,0-3.954,1.566-.024.009-.011.005v-.038Z" transform="translate(-35.387 -593.289)" fill="#fff" fill-rule="evenodd"/>
      <path id="路径_49010" data-name="路径 49010" d="M44.6,623.357l.067-.514,0-.018v-.009h-.009l-.018,0-1.92-.233.243-1.875,1.921.234.017,0h.009v-.009l0-.018.067-.514,0-.018v-.009h-.009l-.018,0h0l-3.978-.484-.018,0h-.009v.009l0,.017-.067.514,0,.018v.009h.009l.018,0,1.534.186-.243,1.875-1.534-.186-.018,0h-.009v.009l0,.018-.067.514,0,.018v.009h.009l.018,0,3.978.483.017,0h.009v-.009Z" transform="translate(-35.5 -589.992)" fill="#fff" fill-rule="evenodd"/>
      <g id="组_7443" data-name="组 7443" transform="translate(56.085 18.007)">
        <path id="路径_49011" data-name="路径 49011" d="M138.081,601.282c-.082.075-.116.065-.214.111a2.451,2.451,0,0,1-.3.139c-.093.022-.188.032-.282.051-.24.049-.308.215-.291.436a.592.592,0,0,1-.1.419,1.057,1.057,0,0,1-.52.25c-.107.019-.152.015-.255.033-.249.046-.193.08-.058.222a1.849,1.849,0,0,1,.335.374c.1.19.014.334-.181.4-.372.116-.891-.177-1.261-.207a2.184,2.184,0,0,1-.522-.145c-.094-.033-.118-.057-.2-.091-.191-.075-.208-.01-.175.16a.613.613,0,0,1-.161.353c-.069.066-.15.1-.2.15-.256.244.087.423.249.594.119.125.2.3.065.43a.572.572,0,0,1-.535.046c-.141-.061-.286-.109-.429-.164a.367.367,0,0,0-.508.256.484.484,0,0,1-.331.319.72.72,0,0,1-.281.041.441.441,0,0,1-.164-.015,1.531,1.531,0,0,1-.6-.362.894.894,0,0,1-.254-.411,5.548,5.548,0,0,0-.033-.611,4.156,4.156,0,0,0,0-.461c.02-.2.142-.238.3-.253a1.613,1.613,0,0,1,.646.02,3.744,3.744,0,0,1,.362.114c.188.074.571.275.753.092a.931.931,0,0,0,.13-.255c.047-.146.1-.24.239-.273a3.392,3.392,0,0,1,.561-.067c.046,0,.1-.006.141-.006a3.9,3.9,0,0,1,.8.214,5.943,5.943,0,0,0,.664.184,1.143,1.143,0,0,0,.27.005c.234-.032.088-.164-.008-.247a2.991,2.991,0,0,0-.5-.327c-.306-.162-.579-.4-.868-.586a3.535,3.535,0,0,1-.346-.224,5.28,5.28,0,0,1-.551-.474c-.16-.168-.29-.244-.426-.381a1.331,1.331,0,0,1-.088-.1l.017-.016-.016-.016c.066-.054.316.063.438.089a.912.912,0,0,1,.249.091,1.063,1.063,0,0,1,.167.108.493.493,0,0,0,.094.061c.183.092.307.194.492.29.321.166.657.613,1.025.667a3.167,3.167,0,0,0,.382-.022,1.261,1.261,0,0,0,.28-.036c.145-.036.451-.35.4-.516.027-.043,0-.116-.043-.176-.054-.082-.061-.115-.175-.141a2.7,2.7,0,0,0-.434.033,3.734,3.734,0,0,1-.6.02.5.5,0,0,1-.193-.027.814.814,0,0,1-.127-.064.31.31,0,0,1-.177-.305.989.989,0,0,1,.238-.427.828.828,0,0,1,.1-.108l.032-.031a.847.847,0,0,0,.194-.332c.055-.119.115-.039.19.031a.7.7,0,0,1,.261.4,1.111,1.111,0,0,1-.028.35.162.162,0,0,0,.095.2,1.041,1.041,0,0,0,.414.038,2.016,2.016,0,0,0,.49-.124c.107-.025.222-.047.321-.074.2-.056.355-.153.532-.216a.679.679,0,0,1,.283-.032A.318.318,0,0,1,138.081,601.282Z" transform="translate(-130.699 -599.434)" fill="#fff" fill-rule="evenodd"/>
        <path id="路径_49012" data-name="路径 49012" d="M130.569,601.307c.01-.15.181-.3.3-.372a1.811,1.811,0,0,1,.277-.117,2.347,2.347,0,0,1,.486-.19.6.6,0,0,0,.082-.02c.159-.057.135-.081.2-.007a.309.309,0,0,0,.009.048c.007.037.019.09.027.145a.654.654,0,0,1,.011.181,1.82,1.82,0,0,1-.117.356,3.438,3.438,0,0,1-.217.461c-.082.136-.241.112-.376.109a.564.564,0,0,1-.34-.1c-.089-.093-.16-.144-.256-.243A.283.283,0,0,1,130.569,601.307Z" transform="translate(-130.568 -599.627)" fill="#fff" fill-rule="evenodd"/>
        <path id="路径_49013" data-name="路径 49013" d="M134.9,599.961a.383.383,0,0,1,.143-.28,2.155,2.155,0,0,1,.264-.221,2.822,2.822,0,0,1,.325-.216l.125-.074c.07-.041.132-.08.189-.121.188-.133.288-.243.358.076a1.24,1.24,0,0,1,.025.312,1.578,1.578,0,0,1-.037.275.765.765,0,0,1-.135.31.813.813,0,0,1-.973.3A.658.658,0,0,1,134.9,599.961Z" transform="translate(-132.443 -598.918)" fill="#fff" fill-rule="evenodd"/>
      </g>
      <g id="组_7444" data-name="组 7444" transform="translate(50.99 12.203)">
        <path id="路径_49014" data-name="路径 49014" d="M126.713,596.473c.046-.1.133-.11.149-.225.011-.078.046-.146.061-.222.012-.06.011-.116.028-.179s.043-.1.058-.176a.639.639,0,0,0,0-.228.119.119,0,0,1,0-.053c-.029-.019.022-.139.044-.156s.053-.01.113.022a.622.622,0,0,1,.232.254c.059.107.135.222.207.332a.609.609,0,0,1,.1.27,1.78,1.78,0,0,1,.031.319.4.4,0,0,1-.206.374.584.584,0,0,1-.1.034.778.778,0,0,1-.443-.111,1.742,1.742,0,0,1-.222-.133C126.718,596.563,126.689,596.524,126.713,596.473Z" transform="translate(-123.799 -591.513)" fill="#fff" fill-rule="evenodd"/>
        <path id="路径_49015" data-name="路径 49015" d="M121.6,591.621c-.024-.043-.044-.078.053-.156a1.032,1.032,0,0,1,.366-.2,3.153,3.153,0,0,0,.653-.127.377.377,0,0,0,.1-.047,2.4,2.4,0,0,1,.42-.22c.136-.055.245-.11.387-.156a.164.164,0,0,0,.126-.2c-.008-.061-.036-.078-.077-.12a.394.394,0,0,1-.094-.2.888.888,0,0,0-.079-.238.115.115,0,0,1,.013-.152.061.061,0,0,1,.083-.01,2.321,2.321,0,0,1,.236.1,2.21,2.21,0,0,0,.377.13c.139.062.1.008.278,0,.2-.007.307.049.422-.119.05-.074.179-.11.248-.186.121-.133.264-.245.387-.375.061-.064.321-.235.324-.269l.046-.068c.046-.068.034-.1.044-.185.005-.049-.006-.069.032-.1a.24.24,0,0,1,.347.075,1.827,1.827,0,0,1,.2.226.769.769,0,0,1,.053.2c.036.231-.035.2-.147.4-.031.055-.064.113-.108.177-.082.121-.22.222-.213.375.162.111.338.086.5.256.072.075.173.1.254.19a.965.965,0,0,0,.222.2.343.343,0,0,1,.145.271c.01.173,0,.287-.1.364a.359.359,0,0,1-.144.041,3.347,3.347,0,0,1-.686-.067c-.116-.015-.22-.072-.336-.087a3.115,3.115,0,0,0-.934-.124,1.429,1.429,0,0,0-.452.133c-.1.059-.133.142-.248.182a6.2,6.2,0,0,1-.643.124c-.278.067-.545.05-.818.1-.216.039-.273,0-.463.031a.721.721,0,0,1-.252.009,1.26,1.26,0,0,1-.452-.1A.3.3,0,0,1,121.6,591.621Z" transform="translate(-121.58 -588.678)" fill="#fff" fill-rule="evenodd"/>
      </g>
      <g id="组_7445" data-name="组 7445" transform="translate(44.802 8.096)">
        <path id="路径_49016" data-name="路径 49016" d="M114.094,586.65a.874.874,0,0,0-.124-.17.462.462,0,0,1-.1-.147c-.014-.037-.023-.078-.035-.116a1.146,1.146,0,0,0-.069-.184c-.027-.053-.067-.134-.133-.142a.937.937,0,0,0-.128,0,.454.454,0,0,1-.159,0l-.064-.03a.048.048,0,0,0-.044,0,.153.153,0,0,1-.066-.007c-.008,0-.018-.015-.046-.045s-.045-.052-.043-.057a.411.411,0,0,1-.061-.185c.015-.032.053-.032.089-.038a.967.967,0,0,0,.126-.011.11.11,0,0,0,.028-.014c.092-.059.128-.063.185-.186.018-.037.051-.121.092-.129a.148.148,0,0,1,.049.007c.073.015.143.032.215.051a.429.429,0,0,0,.281,0,1.342,1.342,0,0,0,.6-.293c.058-.062.1-.079.145-.163.06-.128-.067-.279-.091-.405a1.611,1.611,0,0,0-.178-.5,1.279,1.279,0,0,1-.074-.265c-.028-.112,0-.169-.1-.2a1.206,1.206,0,0,0-.446.075.673.673,0,0,0-.111.043,1.727,1.727,0,0,1-.2.07c-.169.048-.342.078-.511.125a1.845,1.845,0,0,0-.325.112.4.4,0,0,0-.175.141c-.053.08-.085.175-.137.258s-.105.211-.156.311a2.15,2.15,0,0,1-.463.511,1.352,1.352,0,0,1-.45.268.433.433,0,0,0-.156.095c-.08.052-.147.018-.228-.008-.028-.009-.063-.018-.1-.029-.061-.022-.163-.078-.128-.155a.184.184,0,0,1,.044-.052.208.208,0,0,1,.18-.059.159.159,0,0,0,.066,0,2.452,2.452,0,0,0,.349-.274.966.966,0,0,0,.262-.332c.033-.071.226-.288.209-.38-.008-.042-.071-.033-.1-.026a.608.608,0,0,1-.073.029,1.631,1.631,0,0,0-.225.04.941.941,0,0,1-.166.055.369.369,0,0,0-.2.092c-.017.013-.036.026-.064.043a.173.173,0,0,1-.166,0c-.073-.035-.106-.015-.149-.035l-.037-.018c-.048-.023-.094-.045-.07-.1a.2.2,0,0,1,.1-.077,1.015,1.015,0,0,0,.149-.095,1.386,1.386,0,0,1,.215-.126c.092-.044.187-.06.275-.1.067-.029.075-.048.158-.042a1.942,1.942,0,0,0,.356-.116l.047-.034a.268.268,0,0,1,.088-.04c.081-.024.182-.214.218-.289l.018-.04a.7.7,0,0,0,.095-.294c0-.03-.033-.049-.073-.066-.13-.054-.264-.091-.376-.143-.162-.076-.182-.029-.269-.272-.007-.018-.016-.056-.028-.09-.029-.086-.046-.1.028-.19a.127.127,0,0,1,.069-.041.447.447,0,0,1,.253-.024,1.793,1.793,0,0,0,.431.04c.013,0,.282-.032.3-.039.071-.037.071-.124.11-.205s.108-.312.176-.349.089-.029.124-.1a.112.112,0,0,1,.149-.037c.089.042.133.061.127.174a.627.627,0,0,0,0,.166c.027.065.059.081.129.052a.662.662,0,0,1,.349-.045c.081,0,.07.052.06.118a1,1,0,0,1-.147.419.261.261,0,0,1-.086.073.132.132,0,0,0-.071.065c-.023.05-.073.052-.116.079s-.152.06-.224.094a.568.568,0,0,0-.2.2l-.084.183a.811.811,0,0,0-.066.181c-.02.125.057.1.116.078.159-.05.357-.065.525-.105s.315-.072.468-.109a.591.591,0,0,0,.257-.1,1.016,1.016,0,0,0,.27-.271.877.877,0,0,0,.154-.289.521.521,0,0,1,.137-.218,2.324,2.324,0,0,1,.2-.207,3.463,3.463,0,0,0,.3-.289.836.836,0,0,1,.16-.148.461.461,0,0,1,.289-.116.2.2,0,0,1,.11.013.717.717,0,0,0,.335.134c.06,0,.092-.014.156-.017.164-.007.279.009.239.2-.011.053-.032.046-.054.094a.486.486,0,0,1-.137.182.564.564,0,0,0-.166.19,1.6,1.6,0,0,1-.532.51,2.3,2.3,0,0,0-.274.134,1.455,1.455,0,0,0-.15.145.814.814,0,0,1-.07.058c-.048.036-.155.07-.179.121-.008.017-.018.035-.027.054a.414.414,0,0,0,0,.31,2.54,2.54,0,0,0,.173.41,2,2,0,0,1,.207.823c-.013.269-.176.4-.341.579a3.791,3.791,0,0,1-.324.244c-.192.173.012.329.159.455a.493.493,0,0,1,.16.216.249.249,0,0,1-.02.243,1.353,1.353,0,0,1-.179.278.429.429,0,0,1-.166.1.225.225,0,0,0-.123.086.182.182,0,0,1-.165.073c-.047-.007-.054-.026-.083-.059s-.094-.091-.131-.137C114.2,586.8,114.141,586.718,114.094,586.65Z" transform="translate(-110.664 -581.433)" fill="#fff" fill-rule="evenodd"/>
      </g>
      <g id="组_7446" data-name="组 7446" transform="translate(36.305 4.51)">
        <path id="路径_49017" data-name="路径 49017" d="M102.6,582.151c-.018-.02,0-.044,0-.09a.325.325,0,0,1,0-.116c.022-.086.058-.166.08-.251.043-.167.117-.329.159-.5.069-.272.15-.506.2-.769.046-.221.081-.426.141-.666.057-.224.046-.334.081-.526.016-.089.046-.167-.044-.19a.275.275,0,0,0-.222.049c-.173.1-.342.2-.511.3a.92.92,0,0,1-.624.078c-.08-.021-.118-.179-.141-.253-.07-.218.152-.6.255-.791a3.565,3.565,0,0,0,.252-.548c.03-.093.076-.15.035-.27a.427.427,0,0,0-.093-.12c-.1-.116-.019-.328.014-.46a2.008,2.008,0,0,1,.139-.341,2.675,2.675,0,0,0,.221-.463,1.928,1.928,0,0,0,0-.352c.007-.074.082-.135.149-.181a.748.748,0,0,1,.511-.064.214.214,0,0,1,.179.169c.09.239-.128.364-.193.548a1.145,1.145,0,0,1-.119.215,1.7,1.7,0,0,1-.185.331.249.249,0,0,0-.078.133c-.026.1-.069.1,0,.2.044.064.106.065.142.132a.779.779,0,0,1,0,.425,1.377,1.377,0,0,1-.238.409.547.547,0,0,0-.11.222c-.01.208.47.005.536-.005.263-.042.327-.133.365-.267.032-.116.03-.193.061-.312.045-.181.084-.333.134-.532s.081-.318.132-.524l.094-.369c.033-.129.106-.221.142-.364.026-.1.092-.139.12-.251a.174.174,0,0,1,.146-.148c.05,0,.071-.025.111-.028a.283.283,0,0,0,.112-.016c.081-.039.078-.059.135-.049s.048.049.067.095a.179.179,0,0,1,.013.107c-.029.112-.046.216-.067.317-.008.039-.016.078-.027.117-.028.112-.04.225-.073.355-.082.323-.1.66-.176.98q-.037.147-.074.294c-.031.122-.012.175.114.184s.293-.135.379-.2a.444.444,0,0,0,.141-.283c.014-.056,0-.092.015-.141s.006-.111.062-.139.077-.138.162-.023a.787.787,0,0,1,.045.112,2.084,2.084,0,0,1,.06.508c.029.352-.273.416-.507.569a4.279,4.279,0,0,0-.483.273.387.387,0,0,0-.063.073,4.634,4.634,0,0,0-.43,1.461l-.157.622a.305.305,0,0,1-.046.127,2.785,2.785,0,0,0-.167.251c-.067.094-.082.158-.142.252-.026.041-.056.077-.081.111a2.2,2.2,0,0,0-.172.3c-.045.089-.1.32-.24.286l-.036-.009c-.031-.008-.036.013-.067.028A.093.093,0,0,1,102.6,582.151Z" transform="translate(-98.285 -575.299)" fill="#fff" fill-rule="evenodd"/>
        <path id="路径_49018" data-name="路径 49018" d="M97.263,581.159a.628.628,0,0,1,.011-.409c.023-.091.008-.193-.114-.161a.579.579,0,0,0-.173.089c-.129.09-.53.151-.46-.125a.914.914,0,0,1,.2-.288c.186-.181.306-.441.482-.635a.847.847,0,0,0,.212-.289c.038-.105.108-.153.132-.248s-.116-.07-.167-.053c-.215.069-.414.1-.63.156a1.273,1.273,0,0,1-.468.077c-.127-.017-.229.05-.35.019-.083-.021-.251-.13-.261-.231-.017-.177.214-.189.35-.223.093-.023.209-.092.3-.109a2.351,2.351,0,0,0,.438-.1c.2-.071.426-.088.632-.153.122-.039.389-.128.442-.264a.439.439,0,0,1,.147-.217.445.445,0,0,1,.147-.052c.182.047.4-.184.569-.2.071-.006.142-.056.213-.039s.163.021.156.1a.546.546,0,0,1-.031.185,1.133,1.133,0,0,1-.3.428c-.144.143-.3.2-.361.425-.024.1-.021.149-.043.234-.05.2-.152.316-.194.483-.113.45-.19.908-.3,1.355-.032.126-.08.346-.213.389A.257.257,0,0,1,97.263,581.159Z" transform="translate(-95.676 -576.234)" fill="#fff" fill-rule="evenodd"/>
        <path id="路径_49019" data-name="路径 49019" d="M99.776,575.82a.445.445,0,0,0-.014-.283c-.028-.093-.064-.088-.048-.185a.168.168,0,0,1,.069-.117.307.307,0,0,1,.146-.024.134.134,0,0,0,.057,0l.054-.011c.205-.049.187-.148.4-.047.023.011.045.022.074.033.281.111.249.241.241.457a.315.315,0,0,1-.054.2.148.148,0,0,1-.035.036.217.217,0,0,1-.187.012.333.333,0,0,0-.265.038.655.655,0,0,1-.4.055C99.723,575.963,99.752,575.917,99.776,575.82Z" transform="translate(-97.424 -575.107)" fill="#fff" fill-rule="evenodd"/>
      </g>
      <path id="路径_49020" data-name="路径 49020" d="M85.993,580.789c0-.014.023-.03.024-.044a1.212,1.212,0,0,0,.755-.333,1.685,1.685,0,0,0,.455-.655,1.737,1.737,0,0,1,.141-.241c0-.028,0-.055,0-.081-.055-.19-.357-.224-.515-.229a4.81,4.81,0,0,1-.532-.014,4.318,4.318,0,0,1-.508-.113c-.066-.019-.135-.049-.135-.083-.057,0,0-.067.061-.1.079-.042.146-.092.241-.144a2.016,2.016,0,0,0,.172-.108,2.312,2.312,0,0,1,.485-.27,1.518,1.518,0,0,0,.28-.087.818.818,0,0,0,.236-.221c.153-.215.08-.194.016-.4a1.506,1.506,0,0,1-.072-.541c.009-.286-.14-.279-.351-.286l-.516-.015v-.019a.244.244,0,0,1-.154-.095.672.672,0,0,1-.121-.459.353.353,0,0,1,.368-.363c.13,0,.292.021.469.031.121.007.2-.049.332-.045a.584.584,0,0,0,.256-.086.458.458,0,0,1,.7.254,1.123,1.123,0,0,1,.046.133.6.6,0,0,1-.022.373,2.114,2.114,0,0,0-.09.626,1.192,1.192,0,0,0,.1.621c.081.093.3.105.489.1a.717.717,0,0,1,.564.159.5.5,0,0,1,.16.7.505.505,0,0,1-.33.2,1.012,1.012,0,0,0-.566.256c-.084.084-.1.346-.113.346a1.362,1.362,0,0,1-.32.844c-.372.476-1.135.449-1.675.438C86.159,580.842,85.992,580.83,85.993,580.789Z" transform="translate(-55.031 -570.86)" fill="#fff" fill-rule="evenodd"/>
      <g id="组_7447" data-name="组 7447" transform="translate(22.774 4.957)">
        <path id="路径_49021" data-name="路径 49021" d="M75.625,582.964a1.018,1.018,0,0,1-.545-.4.693.693,0,0,0-.154-.184.344.344,0,0,0-.462.035.412.412,0,0,1-.093.1.753.753,0,0,1-.289.1c-.342.052-.555-.291-.737-.529a1.738,1.738,0,0,1-.391-.693.23.23,0,0,1,.055-.183c.052-.057.022-.105.044-.162s.124-.126.153-.178a.2.2,0,0,1,.209-.1c.1.022.2.1.243.091a.5.5,0,0,1,.091.247.768.768,0,0,0,.213.439.5.5,0,0,1,.186.19c.037-.009.086.057.124.125.065.116.158.243.281.059.026-.01.037-.089.067-.142.048-.089.059-.041.023-.171-.019-.068-.043-.137-.063-.132-.018-.078-.112-.075-.175-.1a.082.082,0,0,1-.057-.067c-.028-.126.059-.129.053-.239a.98.98,0,0,1,.03-.219.167.167,0,0,0-.055-.174c-.06-.054-.076-.072-.144-.015a.384.384,0,0,1-.161.056c-.073.014-.149.015-.162-.043a.058.058,0,0,1,.022-.052,2.141,2.141,0,0,0,.144-.172,1.689,1.689,0,0,1,.53-.35c.107-.032.2-.061.306-.089a1.9,1.9,0,0,1,1.313.064.172.172,0,0,1,.106.178.645.645,0,0,1-.1.248,2.3,2.3,0,0,0-.3.608c-.055.111-.156.269-.206.384a1.737,1.737,0,0,0-.172.365c-.014.09.01.168-.006.251a.788.788,0,0,0-.012.132c0,.171.3.2.422.189.158-.014.229-.174.355-.243a1.2,1.2,0,0,1,.514-.162c.154,0,.151.153.162.255.007.064-.037.1-.057.161-.029.083-.018.069-.09.131a2.27,2.27,0,0,0-.238.235.555.555,0,0,1-.257.184.97.97,0,0,1-.721-.036ZM72.4,580.594c.065.031.112,0,.184-.013s.12-.089.154-.139a.792.792,0,0,0,.094-.383c.007-.051.049-.142.064-.207a.486.486,0,0,1,.035-.11,3.138,3.138,0,0,1,.521-.743c.078-.09.124-.22.225-.3,0,0,.213-.038.168.022a1.442,1.442,0,0,1,.084.334.392.392,0,0,1-.007.224c-.032.06-.207.192-.2.273,0,.057.034.063.08.052a.1.1,0,0,0,.049-.03c.033-.032.026-.058.087-.069a.167.167,0,0,1,.055,0c.007.034.039.021.017.073a.267.267,0,0,0-.019.238c.076.008.071.043.175.027.056-.009.107-.033.162-.045.1-.022.1-.09.1-.192a.985.985,0,0,1,0-.108c.011-.1.215-.083.289-.1a.12.12,0,0,1,.138.035c.055.054.024.106-.012.154-.006.03,0,.129.044.118,0,.007.032,0,.059,0,.092-.023.144-.1.224-.141a.567.567,0,0,1,.152-.08c.038-.008.1-.1.081-.151a1.109,1.109,0,0,1-.059-.181c-.071-.091-.219-.1-.249-.124a1.139,1.139,0,0,1-.594-.13.346.346,0,0,1-.126-.255c-.023-.12-.068-.353.018-.452a.505.505,0,0,1,.188-.121,6.542,6.542,0,0,1,1.224-.339c.074.021.2-.05.227.1.013.068.052.071.091.062s.162.016.167-.03a.549.549,0,0,0,.124-.174c.042-.008.037-.208-.008-.221-.017-.076-.133-.146-.193-.18a.6.6,0,0,0-.3-.072c-.071.021-.078-.017-.151-.011a2.152,2.152,0,0,0-.885.275c-.053.032-.09.079-.153.094a1.325,1.325,0,0,1-.509.049c-.082-.026-.093-.132-.109-.206l-.025-.111c-.038-.169.115-.352.243-.443a.848.848,0,0,0,.239-.241c.1-.157.105-.55-.142-.591a.063.063,0,0,1-.042-.025.188.188,0,0,0-.072-.065.549.549,0,0,0-.445.021c-.058.02-.067.03-.126.054-.145.061-.229.21-.432.3-.026.012-.052.017-.077.027a.671.671,0,0,0-.2.192.253.253,0,0,1-.134.106c-.027.05-.061.092.011.125.074-.017.184.078.29.15s.332.1.366.249c.041.181.1.348.132.533a.391.391,0,0,1-.132.4,2.533,2.533,0,0,0-.277.323,1,1,0,0,1-.234.138c-.135.095-.22.241-.38.271-.121.023-.132-.128-.194-.2a1.075,1.075,0,0,1-.21-.484c.044-.024-.064-.141-.083-.159s-.093-.053-.116.006c-.017,0-.027.061-.03.113a.711.711,0,0,1-.02.147c-.043.184-.074.358-.108.545a5.512,5.512,0,0,0-.106.888,2.611,2.611,0,0,0,.079.634l.016,0c.071.175.347.21.5.279Zm2.565.071a.52.52,0,0,0,.253-.079c.047-.041.053-.088-.027-.121l-.26.059c-.031.021-.05.041-.049.046l.02.089C74.923,580.653,74.942,580.667,74.965,580.664Z" transform="translate(-71.806 -575.897)" fill="#fff" fill-rule="evenodd"/>
      </g>
      <g id="组_7448" data-name="组 7448" transform="translate(14.854 9.793)">
        <path id="路径_49022" data-name="路径 49022" d="M63.727,588.363a1.773,1.773,0,0,1-.774.236c-.059-.008-.106-.063-.027-.13l.137-.118c.089-.077.122-.129.212-.206.051-.045.133-.124.138-.2a1.163,1.163,0,0,1-.005-.166c.023-.23-.074-.344-.2-.549a2.789,2.789,0,0,0-.812-.93,1.408,1.408,0,0,1-.189-.131c-.1-.088-.084-.108-.214-.143-.056-.014-.108-.012-.1.109a2.373,2.373,0,0,1-.116.505,1.98,1.98,0,0,0-.024.666c.008.159.062.411.05.549a.43.43,0,0,1-.15.26c-.152.131-.167.145-.324.115a2.438,2.438,0,0,0-.291-.041,1.324,1.324,0,0,0-.261.042c-.153.037-.347.12-.387.273a.127.127,0,0,0,0,.046.807.807,0,0,0,.152.309,1.563,1.563,0,0,1,.274.664c.01.094.011.187.022.264a1.48,1.48,0,0,1,.025.449.6.6,0,0,1-.221.409c-.1.121-.3.047-.4-.043a.534.534,0,0,1-.1-.129,1.581,1.581,0,0,1-.1-.284c-.1-.264-.223-.517-.323-.783a4.268,4.268,0,0,0-.5-.817c-.1-.147-.172-.278-.278-.414-.173-.226-.384-.222-.167-.408l.059-.051c-.007.017.077.02.135.01a.737.737,0,0,1,.488.044c.1.041.143.119.241.155.2.073.256-.125.331-.287a.835.835,0,0,0,.035-.477,1.77,1.77,0,0,1-.016-.39.847.847,0,0,1,.308-.441c.081-.07.192-.237.306-.193a.771.771,0,0,1,.32.279c.1.158.151.473.262.6s.155,0,.126-.132a.994.994,0,0,1-.048-.329c.015-.129-.019-.255,0-.379a1.348,1.348,0,0,0,.019-.159,4.25,4.25,0,0,1,.087-.991,1.472,1.472,0,0,1,.15-.531.641.641,0,0,1,.334-.07c.2.029.137.065.324.213.073.057.139.117.162.134a4.545,4.545,0,0,1,.45.4,7.69,7.69,0,0,1,.744.884c.139.195.162.293.3.485.183.258.287.536.434.76a.388.388,0,0,1,.075.426A1.19,1.19,0,0,1,63.727,588.363Z" transform="translate(-58.195 -584.427)" fill="#fff" fill-rule="evenodd"/>
        <path id="路径_49023" data-name="路径 49023" d="M58.711,594.235c-.015.008-.031.014-.047.02-.092.039-.088.021-.18.03-.043,0-.089.013-.1.015-.124.026-.162-.017-.256-.022a.285.285,0,0,1-.183-.1l-.023-.034a.685.685,0,0,1-.088-.3c.009-.05.044-.092.039-.149-.02-.249.236-.523.779-.486a.4.4,0,0,1,.188.088c.01-.009.12.1.171.118.067.025.067.044.149.034l.04-.005c.04,0,.046-.006.077.029s.034.068,0,.1l-.07.06a3.017,3.017,0,0,0-.18.283,1.2,1.2,0,0,1-.137.208A.769.769,0,0,1,58.711,594.235Z" transform="translate(-57.835 -588.231)" fill="#fff" fill-rule="evenodd"/>
      </g>
      <g id="组_7449" data-name="组 7449" transform="translate(8.044 16.607)">
        <path id="路径_49024" data-name="路径 49024" d="M50.517,603.819c-.094-.1-.213-.226-.3-.339a2.528,2.528,0,0,0-.29-.388l-.011.012c-.063-.091-.159-.1-.222-.139l-.048.052a.969.969,0,0,1,0,.292.482.482,0,0,0-.014.121c.008.1.1.326.019.412.026.024-.062.139-.091.169l-.11.117-.012-.011c-.053.057-.294-.042-.342-.087s-.086-.066-.078-.1.023-.044-.026-.089-.042-.151-.045-.229c0-.1,0-.2-.012-.3-.011-.129-.069-.148-.055-.306.011-.124-.077-.249-.09-.38a3.437,3.437,0,0,0-.141-.572.979.979,0,0,1-.052-.261c-.074-.07-.2-.353-.225-.211a.514.514,0,0,0-.151.235,1.432,1.432,0,0,0-.044.178c-.015.085-.021.161-.033.245a2.344,2.344,0,0,0-.019.3c0,.091,0,.233,0,.263,0,.062.034.142.032.178a.8.8,0,0,1-.122.393c-.08.1-.118.18-.174.257a.987.987,0,0,1-.223.236.913.913,0,0,1-.224.109c-.192.072-.194-.156-.185-.273.006-.083-.009-.147,0-.235.006-.138.03-.319.033-.375a1.909,1.909,0,0,1,.056-.508c.038-.113.033-.31.07-.421a1.994,1.994,0,0,0,.081-.461,3.007,3.007,0,0,0,.034-.887c-.024-.159-.141-.232-.258-.342-.133-.124-.187-.22-.321-.346a1.973,1.973,0,0,1-.247-.316,4.588,4.588,0,0,0-.412-.507c-.022-.022-.165-.15-.184-.13-.117-.11-.248-.2-.238-.387,0-.065-.019-.159-.013-.223a.57.57,0,0,1,.026-.089c.083-.272.247-.155.315-.228a.147.147,0,0,0,.081.014.27.27,0,0,1,.224.107c.178.167.339.287.521.459.117.111.172.207.282.312a.626.626,0,0,0,.308.2,1.451,1.451,0,0,1,.158.026,1.522,1.522,0,0,1,.442.357c.156.173.289.355.431.532a10.777,10.777,0,0,0,.893,1.119l-.011.012a9.029,9.029,0,0,1,.642.7c.149.168.286.338.447.507.184.192.332.375.523.57-.006.013.04.059.09.105.1.09.248.152.286.3.029.115-.04.232-.175.387a.323.323,0,0,1-.38.123A.735.735,0,0,1,50.517,603.819Z" transform="translate(-45.822 -597.229)" fill="#fff" fill-rule="evenodd"/>
        <path id="路径_49025" data-name="路径 49025" d="M54.462,599.946a2.418,2.418,0,0,1-.694.485.742.742,0,0,1-.435-.1c-.041-.023-.081-.046-.12-.071-.116-.073-.222-.15-.332-.232-.094-.07-.194-.126-.3-.22-.031-.027-.067-.042-.1,0a.181.181,0,0,0,0,.172,8.017,8.017,0,0,0,.193.857c.022.126-.009.234.012.353a3.018,3.018,0,0,1,.044.442.221.221,0,0,1-.014.092c-.054.137-.176.107-.28.079-.2-.056-.223-.127-.329-.334-.037-.073-.072-.157-.057-.173a2.986,2.986,0,0,1-.107-.352,1.743,1.743,0,0,1-.036-.454c.005-.105-.029-.253-.037-.366a.279.279,0,0,1,0-.069c.022-.12-.052-.086-.121-.081-.126.008-.124.034-.226.143a.311.311,0,0,1-.453.026.764.764,0,0,1-.209-.622.559.559,0,0,1,.118-.282,1.743,1.743,0,0,0,.172-.585.632.632,0,0,1,.433-.481.827.827,0,0,1,.6.073c.155.094.12.179.118.335,0,.131.087.559,0,.647.026.069-.015.205.074.259a.1.1,0,0,0,.088.008.641.641,0,0,1,.364.1c.111.058.169.106.268.158a.447.447,0,0,0,.591-.125c.157-.185.3-.386.464-.563a2.066,2.066,0,0,1,.149-.18c.16-.144.352.3.408.4s0,.227-.013.342A.571.571,0,0,1,54.462,599.946Z" transform="translate(-48.002 -597.182)" fill="#fff" fill-rule="evenodd"/>
        <path id="路径_49026" data-name="路径 49026" d="M49.477,598.084c-.073-.069-.092-.087-.177-.156s-.149-.124-.218-.191a2.132,2.132,0,0,1-.228-.278.743.743,0,0,1-.126-.262.3.3,0,0,1,.062-.336,1.183,1.183,0,0,1,.191-.255.577.577,0,0,1,.236-.143.449.449,0,0,1,.435.134.331.331,0,0,1,.11.268c-.007.1-.017.173-.027.262-.006.053-.006.122-.012.186-.01.109-.055.174-.058.286a2.187,2.187,0,0,1-.077.355C49.547,598.074,49.531,598.1,49.477,598.084Z" transform="translate(-47.071 -596.447)" fill="#fff" fill-rule="evenodd"/>
      </g>
      <rect id="矩形_7058" data-name="矩形 7058" width="1.063" height="1.063" transform="translate(7.84 26.841) rotate(-74.271)" fill="#fff"/>
      <path id="路径_49027" data-name="路径 49027" d="M56.319,662.525a2.2,2.2,0,0,1,1.616-.406,1.839,1.839,0,0,1,1.238.86,1.934,1.934,0,0,1,.326.992,1.752,1.752,0,0,1-.252.981,2.413,2.413,0,0,1-.781.788,2.371,2.371,0,0,1-1.058.392,1.7,1.7,0,0,1-1-.189,2.008,2.008,0,0,1-.744-.687,1.908,1.908,0,0,1-.325-1.006,1.772,1.772,0,0,1,.26-.982,2.287,2.287,0,0,1,.72-.744Zm.294.467a1.62,1.62,0,0,0-.751.957,1.371,1.371,0,0,0,1.083,1.659,1.721,1.721,0,0,0,1.224-.33,2.073,2.073,0,0,0,.631-.61,1.284,1.284,0,0,0,.213-.721,1.323,1.323,0,0,0-.223-.715,1.366,1.366,0,0,0-.861-.607A1.744,1.744,0,0,0,56.613,662.993Z" transform="translate(-41.9 -608.272)" fill="#fff" fill-rule="evenodd"/>
      <path id="路径_49028" data-name="路径 49028" d="M71.546,675.169l1.67-3.676,1.266.575a3.388,3.388,0,0,1,.63.35,1.369,1.369,0,0,1,.42.508,1.647,1.647,0,0,1,.149.826,2.679,2.679,0,0,1-.252.939,2.779,2.779,0,0,1-.435.7,1.948,1.948,0,0,1-.494.422,1.429,1.429,0,0,1-.486.181,1.488,1.488,0,0,1-.522-.014,2.781,2.781,0,0,1-.619-.206l-1.326-.6Zm.683-.213.785.356a2.075,2.075,0,0,0,.6.192.894.894,0,0,0,.416-.041,1.269,1.269,0,0,0,.481-.342,2.505,2.505,0,0,0,.419-.664,1.878,1.878,0,0,0,.213-.972,1.044,1.044,0,0,0-.272-.625,2.077,2.077,0,0,0-.595-.361l-.773-.351Z" transform="translate(-48.92 -612.344)" fill="#fff" fill-rule="evenodd"/>
      <path id="路径_49029" data-name="路径 49029" d="M66.632,567.152h0a35,35,0,0,1,35,35h0v0h0a35,35,0,0,1-35,35h0a35,35,0,0,1-35-35h0v0h0a35,35,0,0,1,35-35h0Zm-.184,1.992a33.008,33.008,0,1,0,33.009,33.009,33.072,33.072,0,0,0-33.009-33.009Zm25.342,10.264a34.066,34.066,0,0,1,4.125,5.627q.816,1.392,1.5,2.858t1.224,3.01a33.865,33.865,0,0,1,1.909,10.991h0v.258h0v.257h0a33.878,33.878,0,0,1-1.728,10.463q-.412,1.235-.913,2.425a33.943,33.943,0,0,1-6.113,9.6,32.352,32.352,0,0,0,9.408-22.741h0v0h0a32.353,32.353,0,0,0-9.409-22.742ZM41.473,624.9q-.65-.719-1.26-1.477a33.807,33.807,0,0,1-7.495-21.009h0v-.259h0v-.257h0a33.83,33.83,0,0,1,1.728-10.463q.411-1.235.913-2.425a33.948,33.948,0,0,1,6.113-9.6,32.352,32.352,0,0,0-9.408,22.743h0v0h0A32.355,32.355,0,0,0,41.473,624.9Z" transform="translate(-31.632 -567.152)" fill="#fff" fill-rule="evenodd"/>
      <path id="路径_49030" data-name="路径 49030" d="M75.694,634.354a23.14,23.14,0,1,1,23.14-23.14,23.143,23.143,0,0,1-23.14,23.14Zm0-45.447A22.3,22.3,0,0,0,56.467,599.9a21.925,21.925,0,0,1,3.288-4.006,22.937,22.937,0,0,1,15.937-6.346h0a22.938,22.938,0,0,1,15.938,6.346A21.923,21.923,0,0,1,94.92,599.9a22.3,22.3,0,0,0-19.226-10.995Zm19.225,33.621a21.926,21.926,0,0,1-3.287,4,22.937,22.937,0,0,1-15.937,6.346h0a22.937,22.937,0,0,1-15.938-6.346,21.906,21.906,0,0,1-3.287-4.005,22.308,22.308,0,0,0,38.45,0ZM75.694,589.934h0a21.284,21.284,0,0,0-21.279,21.279h0v0h0a21.285,21.285,0,0,0,21.279,21.279h0a21.284,21.284,0,0,0,21.278-21.279h0v0h0a21.283,21.283,0,0,0-21.279-21.278Z" transform="translate(-40.693 -576.213)" fill="#fff" fill-rule="evenodd"/>
      <path id="路径_49031" data-name="路径 49031" d="M83.216,659.121m1.666-2.523a1.121,1.121,0,0,0-.233-.037,1.771,1.771,0,0,0-.245,0,2.155,2.155,0,0,0-.227.03,1.286,1.286,0,0,0-.181.046.362.362,0,0,0-.107.052.55.55,0,0,0,0,.091.429.429,0,0,0,.026.1l.569-.065-.52,2.254-.319,0-.006.146.923.214.06-.138-.364-.152.023-.05c.011-.024.024-.057.038-.1a1.369,1.369,0,0,0,.04-.137Z" transform="translate(-53.974 -605.876)" fill="#fff"/>
      <path id="路径_49032" data-name="路径 49032" d="M86.491,660.1m.419-.025.024.122a2.087,2.087,0,0,0,.611-.169,1.631,1.631,0,0,0,.482-.332,1.6,1.6,0,0,0,.33-.484,1.984,1.984,0,0,0,.156-.63,2.025,2.025,0,0,0-.01-.49,1.175,1.175,0,0,0-.111-.356.815.815,0,0,0-.185-.238.791.791,0,0,0-.231-.14.976.976,0,0,0-.624-.018.71.71,0,0,0-.272.168.821.821,0,0,0-.172.264,1.106,1.106,0,0,0-.077.324.989.989,0,0,0,.028.353.693.693,0,0,0,.138.263.667.667,0,0,0,.222.17.8.8,0,0,0,.281.075.834.834,0,0,0,.252-.015.791.791,0,0,0,.2-.076,1.753,1.753,0,0,0,.178-.112,1.62,1.62,0,0,1-.12.428,1.422,1.422,0,0,1-.2.33,1.507,1.507,0,0,1-.243.242,1.614,1.614,0,0,1-.255.167,1.6,1.6,0,0,1-.231.1,1.417,1.417,0,0,1-.176.05Zm.6-1.257a.456.456,0,0,1-.117-.084.7.7,0,0,1-.117-.15.785.785,0,0,1-.083-.21.843.843,0,0,1-.018-.266,1.307,1.307,0,0,1,.039-.223.763.763,0,0,1,.079-.2.459.459,0,0,1,.13-.149.4.4,0,0,1,.188-.075.616.616,0,0,1,.255.022.731.731,0,0,1,.275.431,1.375,1.375,0,0,1,.032.285c0,.1,0,.218-.014.342a1.564,1.564,0,0,1-.145.088c-.057.03-.116.059-.178.086s-.121.049-.178.068A.715.715,0,0,1,87.507,658.82Z" transform="translate(-55.393 -606.197)" fill="#fff"/>
      <path id="路径_49033" data-name="路径 49033" d="M90.8,660.337m1.327-1.082a.847.847,0,0,1-.036.337.885.885,0,0,1-.155.285,1.1,1.1,0,0,1-.25.224,1.378,1.378,0,0,1-.319.155,1.607,1.607,0,0,1-.365.075l.022.162a2.83,2.83,0,0,0,.387-.045,2.14,2.14,0,0,0,.362-.1,1.469,1.469,0,0,0,.314-.163,1.049,1.049,0,0,0,.243-.228.884.884,0,0,0,.148-.3,1.051,1.051,0,0,0,.031-.372.9.9,0,0,0-.091-.328.738.738,0,0,0-.193-.238.761.761,0,0,0-.272-.139.908.908,0,0,0-.326-.028,1.4,1.4,0,0,0-.225.037,1.26,1.26,0,0,0-.174.06.891.891,0,0,0-.125.066l-.08-.924,1.168-.06-.029-.337-1.35.119.126,1.446.178-.016a.929.929,0,0,1,.151-.084,1.817,1.817,0,0,1,.24-.091,1.783,1.783,0,0,1,.293-.063.614.614,0,0,1,.162.124.547.547,0,0,1,.112.178A.856.856,0,0,1,92.127,659.255Z" transform="translate(-57.259 -606.237)" fill="#fff"/>
      <path id="路径_49034" data-name="路径 49034" d="M94.889,659.658m1-3.1-.061-.109a2.12,2.12,0,0,0-.529.349,1.656,1.656,0,0,0-.355.465,1.612,1.612,0,0,0-.165.563,2,2,0,0,0,.047.647,2.044,2.044,0,0,0,.161.463,1.193,1.193,0,0,0,.216.3.825.825,0,0,0,.249.17.788.788,0,0,0,.263.061.973.973,0,0,0,.6-.176.7.7,0,0,0,.207-.245.809.809,0,0,0,.082-.3,1.085,1.085,0,0,0-.027-.332.975.975,0,0,0-.135-.327.71.71,0,0,0-.213-.207.677.677,0,0,0-.264-.094.813.813,0,0,0-.29.016.843.843,0,0,0-.236.091.8.8,0,0,0-.17.135,1.674,1.674,0,0,0-.135.161,1.66,1.66,0,0,1-.018-.444,1.447,1.447,0,0,1,.086-.374,1.564,1.564,0,0,1,.156-.306,1.7,1.7,0,0,1,.19-.238,1.8,1.8,0,0,1,.189-.169,1.368,1.368,0,0,1,.152-.1Zm-.179,1.38a.481.481,0,0,1,.138.044.692.692,0,0,1,.157.107.757.757,0,0,1,.145.174.821.821,0,0,1,.1.248,1.28,1.28,0,0,1,.033.223.79.79,0,0,1-.015.213.478.478,0,0,1-.077.181.4.4,0,0,1-.156.129.619.619,0,0,1-.248.058.737.737,0,0,1-.4-.325,1.4,1.4,0,0,1-.118-.261c-.033-.1-.064-.209-.093-.33a1.6,1.6,0,0,1,.111-.129c.044-.046.092-.091.142-.136s.1-.085.149-.12A.755.755,0,0,1,95.712,657.942Z" transform="translate(-58.979 -605.83)" fill="#fff"/>
      <g id="组_7450" data-name="组 7450" transform="translate(16.776 18.3)">
        <path id="路径_49035" data-name="路径 49035" d="M75.618,622.9c-9.681-.633-15.651,4.635-14.167,9.993,1.1,3.963,5.411,6.273,9.741,7.049a29.856,29.856,0,0,0,12.7-.677c5.8-1.593,11.14-4.705,12.547-8.724-3.7,4.808-10.493,6.464-16.123,6.642-5.962.188-13.635-1.283-14.56-6.886C64.972,625.545,71.65,622.889,75.618,622.9Z" transform="translate(-61.226 -609.575)" fill="#fff" fill-rule="evenodd"/>
        <path id="路径_49036" data-name="路径 49036" d="M79.352,605.472a17.739,17.739,0,0,1,4.7,2.044c4.483,3.1,6.776,9.157,4.139,14.073a13.178,13.178,0,0,1-6.639,5.708s-1.587.537-2.678.985c-.241.1,5.369-1.951,6.69-5.291,1.925-4.869-.917-10.65-7.772-11.328Z" transform="translate(-68.401 -602.049)" fill="#fff" fill-rule="evenodd"/>
        <path id="路径_49037" data-name="路径 49037" d="M90.91,599.434a12.724,12.724,0,0,1,5.421,7.045c1.658,5.221-.658,11.348-4.46,14.8a25.934,25.934,0,0,1-8.083,4.135,30.872,30.872,0,0,0,3.887-2.2,10.465,10.465,0,0,0,4.945-6.673A12.552,12.552,0,0,0,88.6,605.106Z" transform="translate(-70.998 -599.434)" fill="#fff" fill-rule="evenodd"/>
        <path id="路径_49038" data-name="路径 49038" d="M104.636,602.644a15.99,15.99,0,0,1-2.011,15.3c-2.688,3.68-7.17,6.341-12.566,8.037,4.523-2.076,7.57-4.8,9.42-9.6a14.333,14.333,0,0,0,.19-10.063Z" transform="translate(-73.714 -600.824)" fill="#fff" fill-rule="evenodd"/>
      </g>
    </g>
    <g id="组_7452" data-name="组 7452" transform="translate(235.027 49.152)">
      <g id="组_7442" data-name="组 7442" transform="translate(0 0)">
        <path id="路径_48972" data-name="路径 48972" d="M241.762,627.621c-.906-.248-2.634-.712-3.281-1.452-.174-.2-.174-.516.286-.516h.8c.522,0,.787-.08,1.31-.08a1.609,1.609,0,0,0,1.037-.26,5.361,5.361,0,0,1,.463-.572c.745-.7.747-1.368.913-2.429a12.324,12.324,0,0,0-.033-5.471,6.667,6.667,0,0,1-.254-.987c-.09-.595.03-.611-.305-1.1-.143-.208-.328-.354-.666.066a10.649,10.649,0,0,1-1.85,1.36,8.762,8.762,0,0,0-2.01,2.164c-.434.558-.981,1.558-1.423,1.989a1.912,1.912,0,0,1-1.257.437c-.893,0-.981,0-1.422-.554a11.615,11.615,0,0,0-.856-.981,5.89,5.89,0,0,0-1-.611,2.192,2.192,0,0,0-2.089-.208.62.62,0,0,0-.148.147,3.61,3.61,0,0,0-.382,1.478,6.938,6.938,0,0,1-1,3.023c-.24.343-.505.66-.691.946a6.5,6.5,0,0,1-1.216,1.579,2.671,2.671,0,0,1-1.922.733c-.7.1-1.158-.725-1.235-1.314a2.313,2.313,0,0,1,.027-.731,6.952,6.952,0,0,1,.5-1.234c.42-1.183.75-2.379,1.183-3.562a18.917,18.917,0,0,0,.682-4.2c.091-.78.225-1.432.268-2.2.072-1.259-.648-1.854.62-1.854h.346c-.072.038.2.29.423.427a3.273,3.273,0,0,1,1.512,1.559c.232.443.135.813.361,1.216.462.829,1.218.323,1.939,0a3.7,3.7,0,0,0,1.5-1.5,7.758,7.758,0,0,1,1.079-1.356,3.753,3.753,0,0,1,2.308-.589c.476,0,1.33-.241,1.586.241a3.4,3.4,0,0,1,.265,1.863c-.114.824-.862,2.024-.862,2.778s.519.45.807-.076a4.4,4.4,0,0,1,.794-1.244c.424-.388.673-.909,1.09-1.276a5.693,5.693,0,0,0,.525-.478,18.846,18.846,0,0,1,3.165-3.074c.435-.37,1.608-1.348,2.039-1.348a2.852,2.852,0,0,1,1.325.737c.577.67.268.613.471,1.655.079.4.13.794.154.917a20.386,20.386,0,0,1,.336,2.659,33.861,33.861,0,0,1-.064,5.119c-.1,1.061-.305,1.452-.406,2.492-.136,1.4-.589,2.634-.745,3.806a1.722,1.722,0,0,1-.985,1.647A5.286,5.286,0,0,1,241.762,627.621Z" transform="translate(-183.85 -597.384)" fill="#fff" fill-rule="evenodd"/>
        <path id="路径_48973" data-name="路径 48973" d="M219.535,621.9c-.073-.017-.142-.042-.217-.066-.422-.136-.356-.187-.692-.421-.157-.109-.334-.214-.369-.233-.491-.272-.494-.527-.8-.816a1.253,1.253,0,0,1-.334-.854,1.758,1.758,0,0,1,.018-.182,3.033,3.033,0,0,1,.572-1.258c.172-.143.414-.183.561-.384.653-.893,2.307-1.069,4.022.624a1.8,1.8,0,0,1,.379.838c.06,0,.112.681.228.892.154.279.1.345.4.544.057.037.11.071.149.1.147.107.172.113.172.321,0,.244-.083.326-.3.326h-.409a13.3,13.3,0,0,0-1.423.428,5.358,5.358,0,0,1-1.062.3A3.274,3.274,0,0,1,219.535,621.9Z" transform="translate(-183.236 -598.216)" fill="#fff" fill-rule="evenodd"/>
        <path id="路径_48974" data-name="路径 48974" d="M189.425,630.482a18.778,18.778,0,0,1,.177-1.907,10.7,10.7,0,0,0,.36-2.012h-.07a2.179,2.179,0,0,0-.21-1.088h-.3c0,.125-.76.75-.9.841a1.976,1.976,0,0,0-.409.3c-.279.307-.719,1.247-1.217,1.247,0,.152-.608.209-.784.209h-.68v-.07c-.327,0-.717-1.027-.717-1.307,0-.21-.045-.459.1-.545.183-.11.2-.055.2-.334,0-.3.345-.564.576-.8.289-.293.6-.585.877-.888.367-.407.258-.64.782-1.051.413-.324.548-.954.913-1.373a14.738,14.738,0,0,0,1.356-2.086,4.059,4.059,0,0,1,.658-.913c0-.431.52-1.623,0-1.3a2.189,2.189,0,0,0-1.16.211,6.19,6.19,0,0,0-.677.378c-.3.2-.554.4-.85.606a9.848,9.848,0,0,0-.989.815c-.288.254-.718.674-.805.766-.178.192-.34.512-.455.611a3.368,3.368,0,0,1-1.566.759c-.537.035-.9.155-1.3.205a4.154,4.154,0,0,1-1.37-.006,3.823,3.823,0,0,1-.983-.377c-.776-.386-.079-1.047.305-1.358.274-.222.43-.452.71-.693.445-.382,1.071-.825,1.252-.982a8.1,8.1,0,0,1,1.727-1.292c.457-.208,1.051-.79,1.5-1a8.31,8.31,0,0,0,1.657-1.08,12.737,12.737,0,0,0,2.832-2.454c.421-.531.307-1.1.307-1.782,0-.767.139-1.211.139-1.989a8.469,8.469,0,0,1,.264-1.673,19.272,19.272,0,0,0,.374-2.732c0-.132-.014-.941-.128-.941,0-.68-.091-1.351.507-1.851.209-.174.435-.517.648-.683a2.593,2.593,0,0,1,.348-.179c1.081-.527,1.19.315,1.614.315,0,.075.09.174.19.289a1.137,1.137,0,0,1,.319,1c0,1.031.094,1.874.089,2.929,0,.681-.142,1.126-.147,1.772a2.636,2.636,0,0,0,.272,1.525,6.08,6.08,0,0,1,.373.56,6.5,6.5,0,0,1,.178,2.393c-.085.981-.265,1.918-.4,2.868a45.355,45.355,0,0,0-.876,5.98h-.07a38.915,38.915,0,0,1-.295,3.987c-.088.945-.219,1.857-.273,2.84-.062,1.121-.2,2.107-.249,3.257-.055.018-.068.291-.066.58,0,.558.248,1.206-.095,1.745-.268.42-.831.544-1.7.577a1.365,1.365,0,0,1-1.473-.816A3.1,3.1,0,0,1,189.425,630.482Z" transform="translate(-179.626 -596.627)" fill="#fff" fill-rule="evenodd"/>
        <path id="路径_48975" data-name="路径 48975" d="M207.9,625.957a10.194,10.194,0,0,1-3.5-.741,3.139,3.139,0,0,1-.954-1.62c-.049-.2-.09-.387-.128-.576-.11-.568-.175-1.117-.24-1.7-.055-.489-.169-.962-.186-1.558,0-.173-.062-.329-.293-.329-.206,0-.526.361-.526.5a33.729,33.729,0,0,0-2.089,3.065c-.327.431-.748.646-1.055,1.056a12.556,12.556,0,0,1-1.236,1.41.962.962,0,0,1-.323.224c-.578.228-.837-.235-1.049-.638-.413-.782-.255-1.055.08-1.98.117-.322.278-.675.371-.675a12.338,12.338,0,0,1,.778-1.345,7.421,7.421,0,0,1,1.3-1.42,14.976,14.976,0,0,0,1.025-1.169,1.229,1.229,0,0,1,.22-.193c.432-.277.114-.407-.1-.606-.39-.366-.462-.281-1.093-.281a1.315,1.315,0,0,1-1.388-1.322,3.234,3.234,0,0,1,1.315-2.44,2.352,2.352,0,0,1,1.211-.45,7.39,7.39,0,0,0,2.3-1.158,2.669,2.669,0,0,1,2.73-.055,3.5,3.5,0,0,1,1.521,2.076c.156.747-.206.885-.693,1.331-.408.373-1.471,1.878-1.98,1.878-.138.277-.678.548-.585.976a.411.411,0,0,0,.231.3,2.7,2.7,0,0,1,.747,1.4c.139.509.161.829.288,1.281a1.888,1.888,0,0,0,2.088,1.463c1.026-.05,2.049-.2,3.075-.2a9,9,0,0,1,.984-.058c.906.079.081,1.961-.062,2.415-.163.51-.692.662-1.09.944A2.408,2.408,0,0,1,207.9,625.957Z" transform="translate(-181.21 -597.695)" fill="#fff" fill-rule="evenodd"/>
        <path id="路径_48976" data-name="路径 48976" d="M200.059,609.437c0-.425,0-.535-.03-.994-.028-.409-.048-.816-.039-1.223a8.892,8.892,0,0,1,.2-1.506,3.113,3.113,0,0,1,.445-1.146c.462-.7.538-.668,1.216-.777a5.026,5.026,0,0,1,1.338-.148,2.47,2.47,0,0,1,1.12.316,1.886,1.886,0,0,1,.841,1.726,1.4,1.4,0,0,1-.51,1.113c-.315.252-.58.446-.887.674-.179.133-.394.333-.607.5-.364.286-.694.331-1.048.645a9.1,9.1,0,0,1-1.318.785C200.291,609.623,200.156,609.656,200.059,609.437Z" transform="translate(-181.586 -596.928)" fill="#fff" fill-rule="evenodd"/>
        <path id="路径_48977" data-name="路径 48977" d="M272.543,632.47a4.581,4.581,0,0,1-1.992-2.289,3.064,3.064,0,0,0-.49-.958,1.544,1.544,0,0,0-2.056-.3,1.824,1.824,0,0,1-.507.345,3.361,3.361,0,0,1-1.364.155c-1.552-.111-2.141-1.826-2.7-3.045a7.83,7.83,0,0,1-1.024-3.423,1.03,1.03,0,0,1,.425-.745c.283-.2.2-.441.353-.668.176-.261.667-.428.845-.627a.914.914,0,0,1,1.009-.221c.43.194.8.636.975.636a2.233,2.233,0,0,1,.153,1.171,3.448,3.448,0,0,0,.5,2.132,2.258,2.258,0,0,1,.625,1.018c.171,0,.32.336.418.669.167.573.452,1.22,1.171.536.123-.019.253-.349.433-.553.3-.34.3-.119.271-.723-.014-.316-.051-.642-.144-.642,0-.36-.418-.439-.672-.59a.365.365,0,0,1-.182-.349c0-.58.386-.505.468-.993a4.283,4.283,0,0,1,.35-.929.758.758,0,0,0-.069-.816c-.208-.294-.263-.39-.616-.209a1.7,1.7,0,0,1-.759.085c-.333-.01-.669-.083-.669-.348a.258.258,0,0,1,.149-.2c.126-.07.8-.6.8-.613a7.516,7.516,0,0,1,2.665-1c.5-.033.943-.068,1.424-.086a8.547,8.547,0,0,1,5.686,1.582.767.767,0,0,1,.288.884,2.88,2.88,0,0,1-.7.983,10.318,10.318,0,0,0-1.894,2.366c-.351.433-.952,1.02-1.283,1.475a7.793,7.793,0,0,0-1.116,1.425c-.15.379-.123.745-.273,1.094a3.4,3.4,0,0,0-.185.568c-.156.75,1.118,1.169,1.663,1.243.7.1,1.174-.533,1.8-.712a5.443,5.443,0,0,1,2.409-.2c.671.151.505.817.456,1.275-.032.288-.263.418-.409.648-.21.333-.147.284-.521.489a10.209,10.209,0,0,0-1.273.793,2.493,2.493,0,0,1-1.308.548,4.361,4.361,0,0,1-3.122-.87ZM260.779,618.9c.257.2.487.127.821.127a1.406,1.406,0,0,0,.809-.459,3.518,3.518,0,0,0,.793-1.583c.08-.216.354-.571.487-.841a2.184,2.184,0,0,1,.261-.449,14.069,14.069,0,0,1,3.017-2.736c.429-.315.758-.84,1.276-1.07.014,0,.97.042.714.261a6.334,6.334,0,0,1,.037,1.546,1.758,1.758,0,0,1-.252.973c-.2.231-1.1.632-1.167.989-.047.25.087.31.3.308a.467.467,0,0,0,.241-.082c.177-.108.174-.228.449-.219a.761.761,0,0,1,.239.061c0,.154.148.13,0,.335a1.189,1.189,0,0,0-.318,1.023c.325.108.267.258.741.292.254.018.5-.038.754-.038.442,0,.53-.295.646-.736.048-.185.064-.289.127-.468.149-.427,1.023-.152,1.365-.155a.546.546,0,0,1,.573.29c.185.293,0,.487-.207.661-.053.126-.139.56.077.56,0,.03.136.042.265.039.424-.009.728-.3,1.119-.4a2.549,2.549,0,0,1,.744-.2c.174,0,.544-.355.505-.581a4.839,4.839,0,0,1-.077-.854c-.224-.466-.857-.662-.967-.79a5.1,5.1,0,0,1-2.468-1.159,1.547,1.547,0,0,1-.3-1.238c.019-.548.053-1.61.528-1.96a2.294,2.294,0,0,1,.945-.342,29.544,29.544,0,0,1,5.693-.267c.3.165.923-.02.9.653-.012.314.154.361.334.366.163,0,.7.228.763.033a2.484,2.484,0,0,0,.714-.637c.193.007.367-.874.183-.975,0-.349-.437-.772-.667-.981a2.7,2.7,0,0,0-1.228-.607c-.331.02-.324-.154-.649-.2a9.658,9.658,0,0,0-4.148.323,2.418,2.418,0,0,1-.764.259,6.025,6.025,0,0,1-2.276-.291c-.333-.2-.276-.671-.276-1.01v-.513c0-.775.848-1.426,1.5-1.7a3.738,3.738,0,0,0,1.282-.817c.571-.594,1.007-2.3-.038-2.726a.283.283,0,0,1-.158-.153.864.864,0,0,0-.25-.353,2.471,2.471,0,0,0-1.968-.35c-.277.029-.327.066-.6.114-.7.122-1.212.69-2.191.888-.124.025-.242.023-.361.039a3.024,3.024,0,0,0-1.074.64,1.144,1.144,0,0,1-.691.33c-.17.2-.36.341-.077.56.343,0,.727.525,1.123.941s1.356.759,1.356,1.457c0,.833.1,1.62.046,2.465a1.745,1.745,0,0,1-.97,1.6,11.369,11.369,0,0,0-1.533,1.141,4.5,4.5,0,0,1-1.159.374c-.685.28-1.2.835-1.933.81-.552-.02-.449-.693-.657-1.047a4.837,4.837,0,0,1-.441-2.324c.217-.061-.141-.68-.206-.776-.1-.154-.355-.326-.515-.091-.077,0-.178.243-.242.466a3.15,3.15,0,0,1-.238.622c-.367.766-.679,1.493-1.009,2.277a24.825,24.825,0,0,0-1.347,3.783,11.852,11.852,0,0,0-.281,2.852h.077c.138.834,1.312,1.263,1.9,1.715Zm11.155,2.853a2.367,2.367,0,0,0,1.189-.094c.246-.135.316-.333,0-.56h-1.2a.567.567,0,0,0-.26.155v.406C271.765,621.657,271.832,621.739,271.934,621.751Z" transform="translate(-187.247 -596.579)" fill="#fff" fill-rule="evenodd"/>
        <path id="路径_48978" data-name="路径 48978" d="M293.007,629.6c0-.056.092-.127.092-.182a4.979,4.979,0,0,0,3.051-1.455,6.9,6.9,0,0,0,1.784-2.739,7.491,7.491,0,0,1,.549-1.006v-.331c-.248-.771-1.488-.877-2.136-.877a19.808,19.808,0,0,1-2.183.008,17.521,17.521,0,0,1-2.1-.4c-.274-.072-.561-.186-.561-.324-.234,0,0-.273.238-.409.316-.181.587-.392.972-.619a7.983,7.983,0,0,0,.691-.463,9.4,9.4,0,0,1,1.956-1.165,6.233,6.233,0,0,0,1.139-.392,3.345,3.345,0,0,0,.939-.934c.6-.9.306-.8.019-1.651a6.123,6.123,0,0,1-.361-2.21c0-1.172-.61-1.127-1.477-1.127h-2.116v-.077a1,1,0,0,1-.641-.368,2.761,2.761,0,0,1-.554-1.869,1.448,1.448,0,0,1,1.466-1.533c.531,0,1.2.051,1.926.071.5.015.822-.225,1.357-.225a2.412,2.412,0,0,0,1.039-.383,1.876,1.876,0,0,1,2.9.957,4.494,4.494,0,0,1,.207.54,2.459,2.459,0,0,1-.043,1.53,8.672,8.672,0,0,0-.292,2.578,4.892,4.892,0,0,0,.494,2.53c.34.37,1.234.395,2.013.369a2.931,2.931,0,0,1,2.33.581c.894.687,1.478,1.8.744,2.842a2.089,2.089,0,0,1-1.331.879,4.135,4.135,0,0,0-2.287,1.117c-.333.356-.354,1.43-.424,1.43a5.574,5.574,0,0,1-1.208,3.495c-1.47,2-4.6,1.977-6.811,2C293.693,629.8,293.007,629.771,293.007,629.6Z" transform="translate(-190.385 -597.406)" fill="#fff" fill-rule="evenodd"/>
        <path id="路径_48979" data-name="路径 48979" d="M335.725,633.655c-.1-.066-.048-.187-.113-.38a1.456,1.456,0,0,1-.142-.488v-.123c0-.365.07-.6.07-1.028,0-.756.142-1.521.142-2.28,0-1.228.093-2.3.044-3.479-.042-.986-.115-1.892-.115-2.973,0-1.011-.161-1.466-.221-2.315-.028-.395.019-.758-.391-.758a1.193,1.193,0,0,0-.889.447c-.377.355-.746.774-1.149,1.093-.171.135-.438.459-.7.726a2.3,2.3,0,0,1-1.345.735,3.744,3.744,0,0,1-1.215.265c-.365,0-.691-.632-.872-.923-.4-.646-.1-1.177-.1-2.109a12.252,12.252,0,0,0,.331-1.516,15.776,15.776,0,0,0,.482-2.594c.025-.429.161-.718-.14-1.183a1.95,1.95,0,0,0-.524-.409,1.777,1.777,0,0,1-.432-1.279V612.4a10.923,10.923,0,0,1,.164-1.224c.014-.126.034-.25.06-.373a11.7,11.7,0,0,0,.437-2.2,2.666,2.666,0,0,0-.27-1.211,1.313,1.313,0,0,1-.091-.286,1.27,1.27,0,0,1,.437-.925,3.679,3.679,0,0,1,1.181-.657,3.253,3.253,0,0,1,.914-.162.931.931,0,0,1,.938.522,1.87,1.87,0,0,1,.2,1.224,1.154,1.154,0,0,1-.334.938.826.826,0,0,0-.1.369,5.045,5.045,0,0,1-.275,1.039,7.468,7.468,0,0,1-.43,1.6,1.1,1.1,0,0,0-.188.649c0,.46-.181.516.2.851.255.223.519.16.742.408a3.379,3.379,0,0,1,.461,1.8,5.972,5.972,0,0,1-.567,1.989,2.426,2.426,0,0,0-.23,1.06c.109.534.672.171,1,.171.487,0,.914-.614,1.272-.767,1.072-.458,1.243-.913,1.261-1.523.016-.527-.075-.85-.075-1.388V607.88c0-.585.212-1.051.212-1.7,0-.463.241-.692.241-1.193a.764.764,0,0,1,.458-.783c.209-.068.277-.182.442-.237a1.208,1.208,0,0,0,.456-.187c.3-.249.267-.334.522-.354.2-.015.256.155.385.329a.772.772,0,0,1,.168.441c0,.506.037.965.058,1.415.008.175.014.35.014.525,0,.505.071,1,.071,1.583,0,.9.141,1.383.141,2.162v.49c.15,0,.164,1.591.164,1.689v1.328c0,.55.138.751.68.654s1.1-.884,1.393-1.263a1.944,1.944,0,0,0,.3-1.35c0-.249-.1-.39-.088-.611.015-.238-.092-.48.115-.658.233-.2.176-.669.661-.27a3.551,3.551,0,0,1,.311.427,7.7,7.7,0,0,1,.487.888c.156.427.167.777.311,1.2a1.57,1.57,0,0,1,.085.763,1.833,1.833,0,0,1-.432,1.111c-.378.444-.827.686-1.193,1.085a18.277,18.277,0,0,0-1.756,1.675,1.68,1.68,0,0,0-.188.374c-.723,1.928-.257,4.448-.257,6.657v2.806a1.306,1.306,0,0,1-.06.587,12.936,12.936,0,0,0-.438,1.244c-.185.466-.181.758-.333,1.222-.066.2-.154.385-.223.558a9.61,9.61,0,0,0-.409,1.454c-.093.424-.1,1.469-.712,1.469h-.161c-.142,0-.14.093-.255.19a1.577,1.577,0,0,1-.178.128C335.984,633.837,335.849,633.74,335.725,633.655Z" transform="translate(-193.95 -596.908)" fill="#fff" fill-rule="evenodd"/>
        <path id="路径_48980" data-name="路径 48980" d="M320.459,629.315a2.732,2.732,0,0,1-.388-1.745c0-.409-.171-.827-.656-.559a2.479,2.479,0,0,0-.641.563,2.5,2.5,0,0,1-1.047.612c-.55.136-1.039.033-1.039-.648a4.006,4.006,0,0,1,.537-1.436c.594-.969.822-2.2,1.364-3.211a3.694,3.694,0,0,0,.591-1.45c.049-.488.3-.766.3-1.2s-.568-.17-.766-.047c-.838.521-1.644.885-2.5,1.338a5.588,5.588,0,0,1-1.9.83c-.559.064-.918.455-1.463.455-.375,0-1.2-.282-1.353-.7-.264-.738.213-.7.643-.942.191-.106.425-.288.6-.383.371-.2.789-.615,1.179-.787a10.191,10.191,0,0,0,1.751-.875c.766-.515,1.714-.832,2.517-1.327a4.608,4.608,0,0,0,1.107-.854c.331-.448.448-.448.484-.737a1.889,1.889,0,0,1,.39-1.077c.145-.21.568-.356.568-.378.822,0,1.488-1.209,2.2-1.451.3-.1.544-.392.863-.392.262,0,.71-.086.772.258a2.371,2.371,0,0,1,.063.816,4.927,4.927,0,0,1-.817,2.139c-.22.365-.438.44-.652.831a2.717,2.717,0,0,0-.423,1.353c0,.433.071.654.071,1.039,0,.894-.306,1.5-.306,2.256v2.562c0,1.181.164,2.328.164,3.512,0,.569.032,1.552-.486,1.881A1.129,1.129,0,0,1,320.459,629.315Z" transform="translate(-192.31 -597.82)" fill="#fff" fill-rule="evenodd"/>
        <path id="路径_48981" data-name="路径 48981" d="M319.939,610.005a1.924,1.924,0,0,0-.362-1.186c-.216-.366-.365-.3-.4-.732a.746.746,0,0,1,.167-.575,1.347,1.347,0,0,1,.593-.255.581.581,0,0,0,.239-.071c.067-.029.142-.066.218-.106.817-.43.632-.828,1.645-.627.108.022.216.044.349.061,1.31.17,1.315.757,1.509,1.683a1.375,1.375,0,0,1-.012.916.664.664,0,0,1-.108.188.951.951,0,0,1-.781.252,1.456,1.456,0,0,0-1.083.448,2.9,2.9,0,0,1-1.638.66C319.868,610.662,319.939,610.44,319.939,610.005Z" transform="translate(-193.057 -597.194)" fill="#fff" fill-rule="evenodd"/>
        <path id="路径_48982" data-name="路径 48982" d="M395.33,629.794c-.086-.482.207-.716-.014-1.165-.15-.3-.188-.633-.32-.941-.1-.242-.242-.442-.336-.708-.1-.284-.1-.472-.221-.771a2.782,2.782,0,0,0-.563-.805.533.533,0,0,1-.135-.184c-.149,0-.26-.551-.222-.664.047-.137.166-.164.459-.2a2.706,2.706,0,0,1,1.443.343c.47.239,1.02.464,1.547.677a2.651,2.651,0,0,1,1.018.718,7.454,7.454,0,0,1,.886,1.063,1.7,1.7,0,0,1,.175,1.836,2.388,2.388,0,0,1-.288.372,3.346,3.346,0,0,1-1.851.683,7.242,7.242,0,0,1-1.114.065C395.569,630.1,395.373,630.033,395.33,629.794Z" transform="translate(-200.212 -598.921)" fill="#fff" fill-rule="evenodd"/>
        <path id="路径_48983" data-name="路径 48983" d="M378.652,627.9c-.192-.093-.343-.171-.19-.687a4.453,4.453,0,0,1,.82-1.6,13.766,13.766,0,0,0,2.021-2.043,1.717,1.717,0,0,0,.259-.421,10.206,10.206,0,0,1,.962-1.807c.352-.53.609-.99,1-1.5a.706.706,0,0,0-.03-1.011c-.179-.2-.322-.19-.568-.241a1.715,1.715,0,0,1-.81-.466,3.8,3.8,0,0,0-.859-.657.494.494,0,0,1-.324-.575.264.264,0,0,1,.273-.237,10.371,10.371,0,0,1,1.082-.219,9.612,9.612,0,0,0,1.66-.452c.648-.116.385-.218,1-.667.692-.508,1.216-.573,1.216-1.449,0-.386.368-.827.43-1.266.111-.767.347-1.516.47-2.276.061-.376.571-1.62.5-1.747v-.356c0-.356-.117-.432-.295-.767-.1-.187-.192-.233-.139-.447a1.036,1.036,0,0,1,1.42-.577,7.656,7.656,0,0,1,1.248.332,3.292,3.292,0,0,1,.671.575c.689.738.36.8.441,1.773.023.273.044.559.044.9,0,.633-.247,1.327.151,1.856.845,0,1.414-.515,2.4-.3.441.1.849-.08,1.368.061a4.082,4.082,0,0,0,1.273.164,1.486,1.486,0,0,1,1.176.613c.457.6.686,1.03.513,1.552-.073.22-.269.327-.416.5a14.435,14.435,0,0,1-2.612,1.43c-.451.229-.958.278-1.408.506-1.16.586-2.758.923-3.634,1.829a6.137,6.137,0,0,0-1.289,1.573c-.212.452-.129.827-.443,1.254a27.089,27.089,0,0,1-1.992,2.008c-.828.912-1.822,1.5-2.676,2.343-.675.664-.985.648-1.577,1.235a3.245,3.245,0,0,1-.88.646,5.561,5.561,0,0,1-1.855.745A1.346,1.346,0,0,1,378.652,627.9Z" transform="translate(-198.757 -597.189)" fill="#fff" fill-rule="evenodd"/>
        <path id="路径_48984" data-name="路径 48984" d="M404.67,623.15A2.679,2.679,0,0,1,404.4,621a8.176,8.176,0,0,1,.484-1.267,10.591,10.591,0,0,1,.9-2.191,2.351,2.351,0,0,0,.192-.331c.31-.7.157-.691.616-.691a1.471,1.471,0,0,0,.184.122c.145.089.354.22.562.362a3.073,3.073,0,0,1,.626.529,8.4,8.4,0,0,1,.8,1.495,15.789,15.789,0,0,1,.831,2.15c.191.693-.387,1.141-.819,1.57a2.551,2.551,0,0,1-1.4.791c-.582,0-.973.074-1.594.074A1.278,1.278,0,0,1,404.67,623.15Z" transform="translate(-201.25 -598.167)" fill="#fff" fill-rule="evenodd"/>
        <path id="路径_48985" data-name="路径 48985" d="M410.837,611.961a1.737,1.737,0,0,1-.47-1.341,9.978,9.978,0,0,1,.1-1.556,13.056,13.056,0,0,1,.31-1.737c.048-.2.1-.416.15-.642.082-.357.15-.68.2-1,.152-1.03.1-1.7,1.369-.931a5.64,5.64,0,0,1,1.1.9,7.319,7.319,0,0,1,.787.979,3.46,3.46,0,0,1,.588,1.412c.23,1.5-.373,3.7-2.043,4.14A2.984,2.984,0,0,1,410.837,611.961Z" transform="translate(-201.834 -597.003)" fill="#fff" fill-rule="evenodd"/>
        <g id="组_7440" data-name="组 7440" transform="translate(153.577 8.548)">
          <path id="路径_48986" data-name="路径 48986" d="M366.844,629.321a3.5,3.5,0,0,0-.772-.423,1.982,1.982,0,0,1-.631-.381c-.118-.119-.226-.254-.338-.38a4.653,4.653,0,0,0-.587-.576c-.193-.154-.492-.389-.756-.3a3.71,3.71,0,0,0-.48.238,1.923,1.923,0,0,1-.607.267h-.3a.2.2,0,0,0-.169.075.65.65,0,0,1-.265.09.9.9,0,0,1-.254-.09c-.131-.057-.263-.117-.263-.141-.121,0-.558-.531-.558-.6,0-.145.142-.212.268-.3.182-.127.305-.126.457-.264a.516.516,0,0,0,.082-.1,1.438,1.438,0,0,0,.369-1.032c0-.173-.021-.549.119-.654a.648.648,0,0,1,.2-.061c.3-.071.6-.131.9-.191a1.8,1.8,0,0,0,1.062-.5,5.605,5.605,0,0,0,1.76-2.183,2.3,2.3,0,0,0,.258-.872c0-.592-.75-.935-1.065-1.373A6.748,6.748,0,0,0,363.724,618a5.424,5.424,0,0,1-.751-.872c-.3-.371-.285-.646-.754-.584-.433.057-1.206.793-1.554,1.078a3.251,3.251,0,0,0-.341.358,6.946,6.946,0,0,1-.649.629c-.553.483-1.155.9-1.711,1.38a7.817,7.817,0,0,0-1.035,1,1.68,1.68,0,0,0-.414.842c-.056.4-.009.816-.057,1.224-.052.453-.023.986-.035,1.454a8.968,8.968,0,0,1-.845,2.756,5.681,5.681,0,0,1-1.226,1.817,1.775,1.775,0,0,0-.423.634c-.212.339-.53.328-.88.377-.122.016-.27.048-.423.064-.27.03-.756,0-.76-.361a.75.75,0,0,1,.077-.276.863.863,0,0,1,.576-.547.62.62,0,0,0,.241-.133,10.212,10.212,0,0,0,.833-1.657,4.053,4.053,0,0,0,.4-1.723c0-.328.344-1.49.117-1.809-.1-.146-.33,0-.406.071a3.083,3.083,0,0,1-.223.24,6.534,6.534,0,0,0-.783.554,4.073,4.073,0,0,1-.528.5,1.546,1.546,0,0,0-.59.705c-.042.079-.09.159-.164.275a.725.725,0,0,1-.627.3c-.338,0-.429.134-.624.134h-.173c-.223,0-.434-.006-.434-.235a.841.841,0,0,1,.236-.466,4.51,4.51,0,0,0,.393-.624,5.893,5.893,0,0,1,.591-.86c.272-.33.6-.558.867-.863.2-.231.2-.316.52-.441a8.074,8.074,0,0,0,1.141-1.074c.036-.06.075-.137.117-.212a1.123,1.123,0,0,1,.262-.308c.263-.234.308-1.132.308-1.481v-.183a2.937,2.937,0,0,0-.164-1.279c-.063-.108-.211-.128-.393-.12-.59.027-1.16.127-1.68.127-.751,0-.741.212-1.5-.55-.057-.057-.162-.181-.268-.29-.265-.275-.363-.315-.23-.77a.514.514,0,0,1,.186-.278c.265-.2.558-.525.915-.54a7.475,7.475,0,0,0,1.7-.617c.052-.02,1.011-.621,1.05-.672.2-.268.051-.6.051-.972,0-.356-.144-1.374.047-1.635s.286-.268.286-.607c0-.25.269-.4.5-.4.412,0,.609-.006.791.435a2.593,2.593,0,0,0,.3.629c.219.2.368.2.579-.035a2.761,2.761,0,0,1,1.243-.791c.315-.129.354.073.434.342a4.158,4.158,0,0,1,.189,1.846,1.077,1.077,0,0,1-.2.43.552.552,0,0,0-.154.374c0,.23-.181.327-.3.5-.139.213-.472.5-.684.752a2.406,2.406,0,0,0-.388,1.115c0,.28,0,.561.005.841a3.426,3.426,0,0,0,.073.8c.146.51.387.266.578.088.512-.474,1.235-.883,1.8-1.335.519-.413,1.063-.831,1.578-1.245a2.448,2.448,0,0,0,.8-.827,4.2,4.2,0,0,0,.542-1.506,3.644,3.644,0,0,0,.072-1.366,2.154,2.154,0,0,1,.129-1.069,9.8,9.8,0,0,1,.4-1.145,14.382,14.382,0,0,0,.612-1.62,3.521,3.521,0,0,1,.343-.844,1.935,1.935,0,0,1,.885-.952.836.836,0,0,1,.443-.146,2.983,2.983,0,0,0,1.506-.087c.228-.1.325-.218.562-.343.609-.317,1.072-.463,1.255.324.052.222-.04.231-.04.452a2.035,2.035,0,0,1-.2.935,2.369,2.369,0,0,0-.291,1.016,6.735,6.735,0,0,1-1.109,2.876,9.81,9.81,0,0,0-.8.993,6.1,6.1,0,0,0-.309.814,3.426,3.426,0,0,1-.159.343c-.118.224-.463.542-.463.778,0,.079,0,.165-.005.253a1.711,1.711,0,0,0,.568,1.168,10.63,10.63,0,0,0,1.381,1.244,8.354,8.354,0,0,1,2.249,2.747,3.682,3.682,0,0,1-.26,2.8,15.821,15.821,0,0,1-.792,1.5c-.419,1,.634,1.226,1.411,1.44a2.045,2.045,0,0,1,.992.532,1.034,1.034,0,0,1,.358.954,5.661,5.661,0,0,1-.185,1.372,1.76,1.76,0,0,1-.456.656.948.948,0,0,0-.313.546.761.761,0,0,1-.494.569c-.192.059-.251,0-.419-.075-.239-.1-.517-.175-.74-.286-.311-.155-.672-.375-.972-.549Zm-2.52-19.118.241.648a1.19,1.19,0,0,0,.409-.494c.114-.266.273-.5.4-.753a4.824,4.824,0,0,0,.614-1.85c0-.182.049-.51-.087-.652a.218.218,0,0,0-.247-.042c-.187.11-.207.28-.347.449a4.486,4.486,0,0,0-.68,1.516,3.16,3.16,0,0,0-.3,1.178Zm.241.648c-.042.035-.085.073-.13.119C364.481,610.925,364.524,610.887,364.566,610.851Z" transform="translate(-349.559 -605.671)" fill="#fff" fill-rule="evenodd"/>
        </g>
        <g id="组_7441" data-name="组 7441" transform="translate(210.062)">
          <path id="路径_48987" data-name="路径 48987" d="M429.026,597.566a2.692,2.692,0,0,1-.3,1.047,11.133,11.133,0,0,1-.474,1.41c-.218.371-.483.716-.712,1.081a1.6,1.6,0,0,0,.516,2.314,2.68,2.68,0,0,1,1.06,1.638,4.768,4.768,0,0,1-.807,2.48c-.273.41-.428.546-.687.94-.627.955-.343.883.549.883a8.348,8.348,0,0,1,2.271.072c.944.255,1.135,1,.724,1.828-.784,1.582-3.364,2.364-4.617,3.479a9.812,9.812,0,0,1-2.106,1.254c-.4.2-.555.21-.933.383-.846.391-.682.652-.027,1.075a2.766,2.766,0,0,1,.653,1.628c0,.436-.15.8-.15,1.136,0,1.6,1.658,1.038,2.722,1.038.781,0,1.609.263,1.609,1.131a2.586,2.586,0,0,1-1.517,1.892c-.641.268-1.252.6-1.881.89a1.663,1.663,0,0,0-.75,2.465,2.183,2.183,0,0,1,.007,2.079,3.234,3.234,0,0,1-.741,1.046c-.237.215-.3.371-.564.489a6.963,6.963,0,0,1-3.056.83,4.038,4.038,0,0,1-2.138-.456c-.388-.216-1.815-1.8-2.1-1.8a18.66,18.66,0,0,0-1.507-1.438c-.6-.7-.337-1.206.1-1.766a7.3,7.3,0,0,1,2.086-2.05,16.461,16.461,0,0,1,1.5-.828c.829-.382,2.684-1.01,2.652-2.175a4.117,4.117,0,0,0-.426-1.223,1.509,1.509,0,0,1-.146-1.635,15.188,15.188,0,0,1,1.531-2.042c.136-.162.28-.333.422-.483.8-.855,2.231-1.314,3.215-1.962a26.627,26.627,0,0,0,2.676-1.6,5.169,5.169,0,0,0,.862-.866c.626-.866-.261-.8-.835-.742a13.535,13.535,0,0,0-2.637.617c-1.483.494-3.109.651-4.63,1.012a16.3,16.3,0,0,1-1.814.429,23.5,23.5,0,0,1-3.273.322c-1.053,0-1.705.188-2.578.2a4.861,4.861,0,0,1-.606-.024v-.1h-.1c.029-.385,1.193-.835,1.661-1.153a4.049,4.049,0,0,1,1.075-.531,4.538,4.538,0,0,1,.874-.207,2.28,2.28,0,0,0,.493-.117c.873-.311,1.592-.4,2.485-.7,1.548-.534,4.06-.235,5.385-1.274a14.137,14.137,0,0,0,1.122-1.317,5.945,5.945,0,0,0,.756-1.027c.334-.59.261-2.569-.441-2.92-.057-.222-.386-.352-.707-.409-.437-.08-.567-.161-1.005.131a12.375,12.375,0,0,0-1.246,1.525,17,17,0,0,1-1.818,2.033,2.244,2.244,0,0,1-.69.547,3.971,3.971,0,0,1-.608.215,1.4,1.4,0,0,1-1.552-.374,4.473,4.473,0,0,1-.655-2.111,3.827,3.827,0,0,1-.052-.652v-.2a3.836,3.836,0,0,0-.478-1.672c-.212-.551.232-.5.695-.525a3.164,3.164,0,0,1,2.129.4,5.082,5.082,0,0,1,1.058,1.184.735.735,0,0,0,.941.307,4.738,4.738,0,0,0,1.418-1.236,9.13,9.13,0,0,0,1.129-1.992c.251-.429.539-.869.76-1.279.455-.841.607-1.642.955-2.418a3.08,3.08,0,0,1,.777-1.022,1.437,1.437,0,0,1,2.506.9Zm-10.964,31.4h1.076c-.188-.006-.377,0-.564,0,.187,0,.376-.006.564,0,.512.015.817-.07.952-.416.118-.3.317-.737.087-1.006-.283-.33-.926-.221-1.557.2a6.739,6.739,0,0,1-.6.33C417.376,628.468,418.062,628.708,418.062,628.965Z" transform="translate(-412.059 -596.213)" fill="#fff" fill-rule="evenodd"/>
        </g>
      </g>
      <path id="路径_48988" data-name="路径 48988" d="M184.339,654.58v-9.688h1.283v3.979h5.034v-3.979h1.283v9.688h-1.283v-4.565h-5.034v4.565Zm9.422,0,3.722-9.688h1.381l3.965,9.688h-1.461l-1.13-2.935h-4.052l-1.062,2.935Zm2.8-3.979h3.286l-1.013-2.681c-.306-.814-.537-1.484-.685-2.01a12.387,12.387,0,0,1-.523,1.852l-1.065,2.84Zm8.034,3.979v-9.688h1.315l5.089,7.606v-7.606h1.229v9.688h-1.315l-5.089-7.612v7.612Zm15.073-3.8v-1.134l4.1-.006v3.592a7.189,7.189,0,0,1-1.949,1.134,5.787,5.787,0,0,1-2.061.38,5.488,5.488,0,0,1-2.595-.612,4.037,4.037,0,0,1-1.761-1.766,5.565,5.565,0,0,1-.6-2.585,5.993,5.993,0,0,1,.593-2.639,3.928,3.928,0,0,1,1.7-1.822,5.35,5.35,0,0,1,2.558-.594,5.056,5.056,0,0,1,1.9.341,3.116,3.116,0,0,1,1.33.947,4.242,4.242,0,0,1,.736,1.586l-1.157.318a3.672,3.672,0,0,0-.541-1.164,2.228,2.228,0,0,0-.927-.677,3.4,3.4,0,0,0-1.333-.255,3.93,3.93,0,0,0-1.52.268,2.842,2.842,0,0,0-1.036.7,3.389,3.389,0,0,0-.611.958,5.08,5.08,0,0,0-.37,1.949,4.724,4.724,0,0,0,.446,2.168,2.854,2.854,0,0,0,1.3,1.294,4.018,4.018,0,0,0,1.809.424,4.286,4.286,0,0,0,1.626-.323,4.064,4.064,0,0,0,1.2-.683v-1.8Zm5.971,3.8v-1.188l4.963-6.205a15.1,15.1,0,0,1,1.006-1.15H226.2v-1.144h6.938v1.144l-5.438,6.719-.588.681h6.186v1.144Zm9.831,0v-9.688h1.282v3.979h5.035v-3.979h1.283v9.688h-1.283v-4.565h-5.035v4.565Zm10.1-4.719a5.258,5.258,0,0,1,1.3-3.776,4.407,4.407,0,0,1,3.345-1.365,4.642,4.642,0,0,1,2.418.641,4.192,4.192,0,0,1,1.642,1.789,5.79,5.79,0,0,1,.564,2.6,5.7,5.7,0,0,1-.593,2.636,4.074,4.074,0,0,1-1.685,1.762,4.826,4.826,0,0,1-2.353.6,4.556,4.556,0,0,1-2.445-.661,4.238,4.238,0,0,1-1.633-1.8,5.464,5.464,0,0,1-.555-2.418Zm1.322.02a3.883,3.883,0,0,0,.941,2.759,3.285,3.285,0,0,0,4.745-.01,4.119,4.119,0,0,0,.937-2.889,4.958,4.958,0,0,0-.4-2.063,3.07,3.07,0,0,0-1.169-1.369,3.181,3.181,0,0,0-1.727-.485,3.272,3.272,0,0,0-2.344.936,4.179,4.179,0,0,0-.981,3.122Zm16.7-4.99h1.283v5.6a6.6,6.6,0,0,1-.332,2.319,2.83,2.83,0,0,1-1.193,1.4,4.2,4.2,0,0,1-2.263.539,4.648,4.648,0,0,1-2.226-.469,2.661,2.661,0,0,1-1.235-1.358,6.426,6.426,0,0,1-.371-2.427v-5.6h1.282v5.591a5.461,5.461,0,0,0,.234,1.859,1.792,1.792,0,0,0,.805.923,2.8,2.8,0,0,0,1.4.324,2.67,2.67,0,0,0,2.016-.643,3.7,3.7,0,0,0,.6-2.464v-5.591Zm7.177,9.688v-9.688H274.1a8.122,8.122,0,0,1,1.726.14,3.282,3.282,0,0,1,1.421.692,3.957,3.957,0,0,1,1.146,1.657,6.453,6.453,0,0,1,.381,2.3,6.7,6.7,0,0,1-.259,1.956,4.679,4.679,0,0,1-.662,1.412,3.441,3.441,0,0,1-.882.878,3.55,3.55,0,0,1-1.154.487,6.566,6.566,0,0,1-1.556.165Zm1.282-1.144h2.068a5.017,5.017,0,0,0,1.5-.178,2.16,2.16,0,0,0,.869-.5,3.038,3.038,0,0,0,.71-1.226,6.008,6.008,0,0,0,.255-1.867,4.5,4.5,0,0,0-.5-2.334,2.5,2.5,0,0,0-1.213-1.094,4.966,4.966,0,0,0-1.658-.2h-2.036v7.4Zm9.462,1.144v-9.688h1.282v9.688Zm3.229,0,3.722-9.688h1.38l3.966,9.688h-1.462l-1.13-2.935h-4.051L286.1,654.58Zm2.794-3.979h3.286l-1.012-2.681c-.307-.814-.538-1.484-.686-2.01a12.384,12.384,0,0,1-.523,1.852l-1.065,2.84Zm8.035,3.979v-9.688h1.315l5.088,7.606v-7.606H303.2v9.688h-1.315l-5.088-7.612v7.612Zm9.765,0v-1.188l4.962-6.205c.354-.443.688-.826,1.006-1.15h-5.406v-1.144h6.938v1.144l-5.438,6.719-.589.681h6.187v1.144Zm10.011,0v-9.688h1.281v9.688ZM329,644.892h1.283v5.6a6.6,6.6,0,0,1-.332,2.319,2.821,2.821,0,0,1-1.193,1.4,4.2,4.2,0,0,1-2.262.539,4.649,4.649,0,0,1-2.227-.469,2.665,2.665,0,0,1-1.235-1.358,6.428,6.428,0,0,1-.37-2.427v-5.6h1.281v5.591a5.456,5.456,0,0,0,.235,1.859,1.784,1.784,0,0,0,.805.923,2.8,2.8,0,0,0,1.4.324,2.67,2.67,0,0,0,2.016-.643,3.7,3.7,0,0,0,.6-2.464v-5.591Zm4.155,9.688v-9.688h1.315l5.089,7.606v-7.606h1.229v9.688h-1.315l-5.088-7.612v7.612Zm10.757,0v-9.688h1.282v9.688Zm7.061,0-3.753-9.688h1.389l2.518,7.038c.2.564.371,1.094.507,1.586q.226-.792.523-1.586l2.616-7.038h1.308l-3.793,9.688Zm7.038,0v-9.688h7v1.144h-5.723V649h5.359v1.137h-5.359v3.3h5.948v1.144Zm9.771,0v-9.688h4.295a5.71,5.71,0,0,1,1.968.262,2.168,2.168,0,0,1,1.079.92,2.769,2.769,0,0,1,.4,1.462,2.426,2.426,0,0,1-.668,1.736,3.389,3.389,0,0,1-2.061.9,3.262,3.262,0,0,1,.774.483,6.752,6.752,0,0,1,1.065,1.288l1.685,2.637h-1.612l-1.281-2.017c-.374-.579-.683-1.026-.927-1.333a2.824,2.824,0,0,0-.649-.647,1.942,1.942,0,0,0-.585-.259,4.093,4.093,0,0,0-.715-.044h-1.487v4.3Zm1.281-5.412h2.756a4.106,4.106,0,0,0,1.374-.183,1.458,1.458,0,0,0,.754-.582,1.574,1.574,0,0,0,.257-.868,1.441,1.441,0,0,0-.5-1.131,2.329,2.329,0,0,0-1.577-.442h-3.066v3.2Zm8.789,2.3,1.209-.107a2.656,2.656,0,0,0,.4,1.194,2.187,2.187,0,0,0,.974.753,3.691,3.691,0,0,0,1.487.286,3.575,3.575,0,0,0,1.3-.217,1.814,1.814,0,0,0,.837-.6,1.4,1.4,0,0,0,.275-.83,1.247,1.247,0,0,0-.267-.8,1.941,1.941,0,0,0-.87-.571,17.173,17.173,0,0,0-1.725-.474,8.831,8.831,0,0,1-1.87-.6,2.623,2.623,0,0,1-1.035-.9,2.215,2.215,0,0,1-.339-1.206,2.462,2.462,0,0,1,.415-1.37,2.587,2.587,0,0,1,1.216-.969,4.626,4.626,0,0,1,1.777-.33,4.832,4.832,0,0,1,1.9.348,2.733,2.733,0,0,1,1.265,1.019,2.955,2.955,0,0,1,.476,1.526l-1.23.093a1.987,1.987,0,0,0-.672-1.388,2.608,2.608,0,0,0-1.687-.468,2.721,2.721,0,0,0-1.7.426,1.281,1.281,0,0,0-.532,1.027,1.1,1.1,0,0,0,.377.859,5.071,5.071,0,0,0,1.933.69,13.026,13.026,0,0,1,2.146.618,2.972,2.972,0,0,1,1.249.988,2.413,2.413,0,0,1,.4,1.378,2.631,2.631,0,0,1-.442,1.458,2.924,2.924,0,0,1-1.272,1.064,4.43,4.43,0,0,1-1.865.38,5.528,5.528,0,0,1-2.2-.384,3.077,3.077,0,0,1-1.4-1.152,3.25,3.25,0,0,1-.53-1.741Zm10.432,3.113v-9.688h1.282v9.688Zm6.759,0v-8.544h-3.192v-1.144h7.678v1.144h-3.206v8.544Zm9.282,0v-4.1l-3.733-5.585h1.558l1.911,2.922c.352.546.678,1.091.983,1.639q.437-.762,1.057-1.712l1.877-2.85h1.492l-3.865,5.585v4.1Z" transform="translate(-180.079 -600.882)" fill="#fff" fill-rule="evenodd"/>
    </g>
  </g>
</svg>
